<svg xmlns="http://www.w3.org/2000/svg" width="304.63" height="239.349" viewBox="0 0 304.63 239.349">
  <g id="authentication_two_color_1_" data-name="authentication_two_color (1)" transform="translate(-41.59 -22.771)">
    <path id="Path_850" data-name="Path 850" d="M85.61,131.19s-10.28,9.37-5.94,26.37c3,11.63,12.16,42.13-20.84,41.31l.84,7.52S92.74,210.72,98,182.56C104,150.73,85.61,131.19,85.61,131.19Z" fill="#02a9e9"/>
    <path id="Path_851" data-name="Path 851" d="M85.61,131.19s-10.28,9.37-5.94,26.37c3,11.63,12.16,42.13-20.84,41.31l.84,7.52S92.74,210.72,98,182.56C104,150.73,85.61,131.19,85.61,131.19Z" fill="#fff" opacity="0.2"/>
    <rect id="Rectangle_2796" data-name="Rectangle 2796" width="213.07" height="138.44" rx="4" transform="translate(101.39 69.57)" fill="#c9c9c9" opacity="0.27"/>
    <path id="Path_852" data-name="Path 852" d="M191.83,192.2l-8.1,51.41h53.98L225.3,192.2Z" fill="#c9c9c9"/>
    <ellipse id="Ellipse_333" data-name="Ellipse 333" cx="136.85" cy="8.04" rx="136.85" ry="8.04" transform="translate(72.52 246.04)" fill="#e6e6e6" opacity="0.45"/>
    <rect id="Rectangle_2797" data-name="Rectangle 2797" width="213.07" height="31.62" transform="translate(101.39 176.39)" fill="#e6e6e6"/>
    <circle id="Ellipse_334" data-name="Ellipse 334" cx="8.56" cy="8.56" r="8.56" transform="translate(200.56 181.76)" fill="#a5a5a5"/>
    <rect id="Rectangle_2798" data-name="Rectangle 2798" width="75.91" height="16.52" rx="4" transform="translate(171.42 234.6)" fill="#e6e6e6"/>
    <path id="Path_853" data-name="Path 853" d="M101.43,102s8.55-5.11,10.89,4.13,4.1,19.48,12.23,21.89-20.39-7.65-20.39-7.65Z" fill="#a5a5a5" opacity="0.4"/>
    <circle id="Ellipse_335" data-name="Ellipse 335" cx="3.73" cy="3.73" r="3.73" transform="translate(114.99 79.65)" fill="#343f4e"/>
    <circle id="Ellipse_336" data-name="Ellipse 336" cx="3.73" cy="3.73" r="3.73" transform="translate(126.08 79.65)" fill="#02a9e9"/>
    <circle id="Ellipse_337" data-name="Ellipse 337" cx="3.73" cy="3.73" r="3.73" transform="translate(136.53 79.65)" fill="#ffba00"/>
    <path id="Path_854" data-name="Path 854" d="M90.63,247.68s-1.89,2.68-4.64,2.17-4.17,1.93-1.94,3.28,9.31-.06,9.31-.06l.89-3.93Z" fill="#68e1fd"/>
    <path id="Path_855" data-name="Path 855" d="M139.12,131.19s10.06.05,13.21,20.78,6.92,55.15-27.78,55.51h0V182.85Z" fill="#a5a5a5" opacity="0.4"/>
    <path id="Path_856" data-name="Path 856" d="M109.56,120.4s28.38,0,31.72,15.75S126.52,199,126.52,199l-32-1.38s1.34-17.52-3.49-31.69S68.19,126.3,109.56,120.4Z" fill="#02a9e9"/>
    <path id="Path_857" data-name="Path 857" d="M124.55,138.05s-9,9.07-4.46,23.44-26.73,14-26.73,14a91,91,0,0,1,1,9.07S108,194.81,129,192.18l1.26-3.6,5.39-13.24Z" opacity="0.08"/>
    <path id="Path_858" data-name="Path 858" d="M90.28,104.7s1.89,5.78,4.4,9.08a3.05,3.05,0,0,0,4.29.57,6.72,6.72,0,0,0,2.86-6.73l-.4-5.59a5.45,5.45,0,0,0-4.49-4.42C92.82,96.68,89,101.24,90.28,104.7Z" fill="#f4a28c"/>
    <path id="Path_859" data-name="Path 859" d="M102.64,105.14l6.92,15.26-9.01,6.69-1.8-14.36Z" fill="#f4a28c"/>
    <path id="Path_860" data-name="Path 860" d="M91.77,104.35a24.65,24.65,0,0,0,5-2.59,5.05,5.05,0,0,0,2.18,5.11,4.12,4.12,0,0,0,5.23-.43L101,99.3a6.18,6.18,0,0,0-5-3.85,21.331,21.331,0,0,0-2.9-.15c-2.42,0-4.86,2.71-7.31,2.11A1.46,1.46,0,0,0,84,99.2c.61,2.32,2.46,5.59,5.92,5.53a5.87,5.87,0,0,0,1.85-.38Z" fill="#24285b"/>
    <path id="Path_861" data-name="Path 861" d="M98.26,107s-.87-2.17.81-2.69,3,2.61.9,3.83Z" fill="#f4a28c"/>
    <path id="Path_862" data-name="Path 862" d="M91.66,108.28,91,111.1a1,1,0,0,0,1.15,1.16l2.31-.5Z" fill="#f4a28c"/>
    <path id="Path_863" data-name="Path 863" d="M99,114.35s2.06-2.83,2.07-4.66a8.94,8.94,0,0,1-1.43,9.89Z" fill="#ce8172" opacity="0.31"/>
    <path id="Path_864" data-name="Path 864" d="M127.16,133.19a8.1,8.1,0,0,1,13.54,2.21c3.83,9,8.22,25,1.66,42.38-10,26.57-49.62-2.76-49.62-2.76l6-6.5s20.84,9.85,29.11,4.73C134.71,169,116.87,145.14,127.16,133.19Z" fill="#02a9e9"/>
    <path id="Path_865" data-name="Path 865" d="M127.16,133.19a8.1,8.1,0,0,1,13.54,2.21c3.83,9,8.22,25,1.66,42.38-10,26.57-49.62-2.76-49.62-2.76l6-6.5s20.84,9.85,29.11,4.73C134.71,169,116.87,145.14,127.16,133.19Z" fill="#fff" opacity="0.2"/>
    <path id="Path_866" data-name="Path 866" d="M93.56,174.13s-6.94-1.36-7.46-6.87,7.61,2.62,9.05,0,4.18-2.72,3.54,1.26Z" fill="#f4a28c"/>
    <path id="Path_867" data-name="Path 867" d="M118.78,236.28s2.44,2.19,1.6,4.86,1.41,4.38,3,2.33,1.08-9.25,1.08-9.25l-3.79-1.36Z" fill="#68e1fd"/>
    <path id="Path_868" data-name="Path 868" d="M94.25,249.14l-5.42-1.46,15.33-42.88L98,197.73,126.52,199a18.31,18.31,0,0,1-6.87,13.31,41.73,41.73,0,0,0-7.13,7.05,166,166,0,0,0-18.27,29.78Z" fill="#343f4e"/>
    <path id="Path_869" data-name="Path 869" d="M94.48,197.57l-.85,20.9a9.88,9.88,0,0,0,5.62,9.34l20,9.57,2-4.83-11.62-8.44a8.73,8.73,0,0,1-3.15-9.83l5.31-16Z" fill="#343f4e"/>
    <path id="Path_870" data-name="Path 870" d="M219.26,113.87h-5.2V101.7a7.51,7.51,0,1,0-15,0v12.17h-5.21V101.7a12.72,12.72,0,0,1,25.43,0Z" fill="#fff"/>
    <path id="Path_871" data-name="Path 871" d="M219.26,113.87h-5.2V101.7a7.51,7.51,0,1,0-15,0v12.17h-5.21V101.7a12.72,12.72,0,0,1,25.43,0Z" fill="#fff" opacity="0.46"/>
    <rect id="Rectangle_2799" data-name="Rectangle 2799" width="38.9" height="31.01" rx="4" transform="translate(187.1 104.57)" fill="#ccc"/>
    <path id="Path_872" data-name="Path 872" d="M210.08,115.84a4.11,4.11,0,1,0-8.21,0,4,4,0,0,0,1.33,3v8.72h5.64v-8.78A4.13,4.13,0,0,0,210.08,115.84Z" transform="translate(0.415 -0.756)" fill="#a5a5a5"/>
    <rect id="Rectangle_2800" data-name="Rectangle 2800" width="73.67" height="15.64" rx="7.82" transform="translate(169.71 147.45)" fill="#fff"/>
    <rect id="Rectangle_2801" data-name="Rectangle 2801" width="22.74" height="15.64" rx="7.82" transform="translate(220.64 147.45)" fill="#343f4e"/>
    <circle id="Ellipse_338" data-name="Ellipse 338" cx="2.15" cy="2.15" r="2.15" transform="translate(177 153.25)" fill="#343f4e"/>
    <circle id="Ellipse_339" data-name="Ellipse 339" cx="2.15" cy="2.15" r="2.15" transform="translate(184.99 153.25)" fill="#343f4e"/>
    <circle id="Ellipse_340" data-name="Ellipse 340" cx="2.15" cy="2.15" r="2.15" transform="translate(192.79 153.25)" fill="#343f4e"/>
    <circle id="Ellipse_341" data-name="Ellipse 341" cx="2.15" cy="2.15" r="2.15" transform="translate(200.78 153.25)" fill="#343f4e"/>
    <circle id="Ellipse_342" data-name="Ellipse 342" cx="2.15" cy="2.15" r="2.15" transform="translate(208.95 153.25)" fill="#343f4e"/>
    <path id="Path_873" data-name="Path 873" d="M59.49,204.81s-10,.28-9.49-5.86,8.83-.08,8.83-.08Z" fill="#f4a28c"/>
    <rect id="Rectangle_2802" data-name="Rectangle 2802" width="11.07" height="19.11" rx="4" transform="matrix(0.537, -0.844, 0.844, 0.537, 42.28, 193.395)" fill="#343f4e" stroke="#edfaff" stroke-width="1"/>
    <rect id="Rectangle_2803" data-name="Rectangle 2803" width="31.74" height="17.16" rx="4" transform="translate(282.73 107.99)" fill="#a5a5a5" opacity="0.4"/>
    <path id="Path_874" data-name="Path 874" d="M50,172.67S21.64,64.48,84,33.5c14.08-7,103.19-25,187.38,18.17" fill="none" stroke="#000" stroke-linecap="round" stroke-linejoin="round" stroke-width="2" stroke-dasharray="2 10" opacity="0.12"/>
    <path id="Path_875" data-name="Path 875" d="M322.33,241.51s-8.51-2.33-10.36-10.26c0,0,13.19-2.66,13.56,11Z" fill="#02a9e9" opacity="0.58"/>
    <path id="Path_876" data-name="Path 876" d="M323.38,240.66s-5.95-9.4-.72-18.2c0,0,10,6.37,5.58,18.22Z" fill="#02a9e9" opacity="0.73"/>
    <path id="Path_877" data-name="Path 877" d="M324.91,240.67s3.14-9.93,12.64-11.82c0,0,1.79,6.45-6.15,11.84Z" fill="#02a9e9"/>
    <path id="Path_878" data-name="Path 878" d="M318.73,240.44l1.73,11.81,10.87.05,1.6-11.8Z" fill="#343f4e"/>
    <rect id="Rectangle_2804" data-name="Rectangle 2804" width="53.17" height="53.17" rx="8" transform="translate(275 56.42)" fill="#ffba00"/>
    <path id="Path_879" data-name="Path 879" d="M291.17,82.5l6.18,10.28,14.82-19.56" fill="none" stroke="#fff" stroke-linecap="round" stroke-linejoin="round" stroke-width="5"/>
  </g>
</svg>
