<svg xmlns="http://www.w3.org/2000/svg" width="283.899" height="238.812" viewBox="0 0 283.899 238.812">
  <g id="focused_working_two_color" transform="translate(-68.2 -43.86)">
    <ellipse id="Ellipse_261" data-name="Ellipse 261" cx="126.48" cy="17.095" rx="126.48" ry="17.095" transform="translate(76.049 248.482)" fill="#e6e6e6" opacity="0.45"/>
    <rect id="Rectangle_2707" data-name="Rectangle 2707" width="100.979" height="134.673" rx="8" transform="translate(68.2 43.86)" fill="#e6e6e6"/>
    <rect id="Rectangle_2708" data-name="Rectangle 2708" width="100.979" height="74.182" rx="8" transform="translate(229.244 65.684)" fill="#e6e6e6"/>
    <circle id="Ellipse_262" data-name="Ellipse 262" cx="9.307" cy="9.307" r="9.307" transform="translate(84.12 94.334)" fill="#02a9e9"/>
    <rect id="Rectangle_2709" data-name="Rectangle 2709" width="77.524" height="22.179" rx="4" transform="translate(241.802 108.381)" fill="#c9c9c9"/>
    <path id="Path_643" data-name="Path 643" d="M233.75,102s52.166-3.352,69.3,37.086H282.26Z" transform="translate(2.107 0.739)" opacity="0.08"/>
    <circle id="Ellipse_263" data-name="Ellipse 263" cx="9.307" cy="9.307" r="9.307" transform="translate(84.12 121.253)" fill="#02a9e9"/>
    <circle id="Ellipse_264" data-name="Ellipse 264" cx="9.307" cy="9.307" r="9.307" transform="translate(84.12 148.171)" fill="#02a9e9"/>
    <path id="Path_644" data-name="Path 644" d="M91.788,106.367h0a.739.739,0,0,1-.516-.263l-2.329-3.038a.689.689,0,0,1,.122-1.013.7.7,0,0,1,1.013.122l1.833,2.36,4.527-4.881a.679.679,0,0,1,1.013,0,.689.689,0,0,1,0,1.013l-5.064,5.489a.689.689,0,0,1-.6.213Z" transform="translate(0.262 0.707)" fill="#fff"/>
    <path id="Path_645" data-name="Path 645" d="M91.788,132.947h0a.7.7,0,0,1-.516-.263l-2.329-3.038a.689.689,0,0,1,.122-1.013.7.7,0,0,1,1.013.122l1.833,2.37,4.527-4.891a.689.689,0,0,1,1.013,0,.7.7,0,0,1,0,1.013l-5.064,5.479A.689.689,0,0,1,91.788,132.947Z" transform="translate(0.262 1.046)" fill="#fff"/>
    <path id="Path_646" data-name="Path 646" d="M91.788,159.877h0a.709.709,0,0,1-.517-.273l-2.329-3.038a.693.693,0,0,1,1.094-.851l1.833,2.36,4.527-4.881a.679.679,0,0,1,1.013,0,.689.689,0,0,1,0,1.013l-5.064,5.489A.689.689,0,0,1,91.788,159.877Z" transform="translate(0.262 1.389)" fill="#fff"/>
    <rect id="Rectangle_2710" data-name="Rectangle 2710" width="49.553" height="11.14" rx="4" transform="translate(107.565 98.325)" fill="#c9c9c9"/>
    <path id="Path_647" data-name="Path 647" d="M86.274,177.747s-8.892-54.819,62.658-72.917l20.022,72.917Z" transform="translate(0.226 0.776)" opacity="0.08"/>
    <rect id="Rectangle_2711" data-name="Rectangle 2711" width="49.553" height="11.14" rx="4" transform="translate(107.565 124.99)" fill="#c9c9c9"/>
    <rect id="Rectangle_2712" data-name="Rectangle 2712" width="49.553" height="11.14" rx="4" transform="translate(107.565 151.908)" fill="#c9c9c9"/>
    <rect id="Rectangle_2713" data-name="Rectangle 2713" width="64.997" height="55.204" transform="translate(169.179 205.401)" fill="#e6e6e6"/>
    <path id="Path_648" data-name="Path 648" d="M188.51,99.115s-42.089-4.2-47.294,22.7S176.034,192.1,176.034,192.1h50.8S307.283,85.373,188.51,99.115Z" transform="translate(0.924 0.688)" fill="#02a9e9"/>
    <path id="Path_649" data-name="Path 649" d="M187.888,107.87s-2.724,8.973,2.785,10.38,6.167-2.127,6.167-2.127,4.7,3.18,6.957-.932,0-10.441-4.051-12.507S187.888,107.87,187.888,107.87Z" transform="translate(1.515 0.744)" fill="#fff"/>
    <path id="Path_650" data-name="Path 650" d="M189.01,107.841a39.766,39.766,0,0,1,1.61,4.112c.608,1.934,2.025,4.659,5.266,4.365,4.993-.446,4.162-8.294,4.162-8.294s1.013-7.859-4.385-7.393C190.833,101.056,186.306,101.643,189.01,107.841Z" transform="translate(1.528 0.722)" fill="#f4a28c"/>
    <path id="Path_651" data-name="Path 651" d="M199.72,108.346s-.365-2.35,1.651-2.805S203.781,109.551,199.72,108.346Z" transform="translate(1.674 0.785)" fill="#f4a28c"/>
    <path id="Path_652" data-name="Path 652" d="M190.771,109.5s.091-2.38-1.965-2.6S186.872,111.174,190.771,109.5Z" transform="translate(1.518 0.802)" fill="#f4a28c"/>
    <path id="Path_653" data-name="Path 653" d="M222.831,114.9s-8.233,12.568-1.236,26.27,3.686,30.878-11.424,27.091c-14.178-3.545-21.672-11.5-41.259-11.464a3.423,3.423,0,0,0-3.322,4.2l6.218,26.412,3.909,4.476h50.8s21.541-30.787,24.913-49.624S222.831,114.9,222.831,114.9Z" transform="translate(1.239 0.904)" opacity="0.08"/>
    <path id="Path_654" data-name="Path 654" d="M188.835,107.077s-6.846-5.57-1.641-10.816c3.737-3.747,7.251-2.674,10.917-3.231a3.96,3.96,0,0,1,4.588,4.152,29.573,29.573,0,0,1-2.8,11.322,13.824,13.824,0,0,1-1.762-6.3S191.59,101.619,188.835,107.077Z" transform="translate(1.49 0.625)" fill="#24285b"/>
    <path id="Path_655" data-name="Path 655" d="M166.917,100.44c-19.151,2.593-61.138,17.682-67.306,46.7s21.723,51.011,85.069,38.413V177.3s-36.053,1.256-52.378-8.892c-8.669-5.388-7.17-18.462,2.36-22.128C149.943,140.4,185.581,122.659,166.917,100.44Z" transform="translate(0.389 0.72)" fill="#02a9e9"/>
    <path id="Path_656" data-name="Path 656" d="M166.917,100.44c-19.151,2.593-61.138,17.682-67.306,46.7s21.723,51.011,85.069,38.413V177.3s-36.053,1.256-52.378-8.892c-8.669-5.388-7.17-18.462,2.36-22.128C149.943,140.4,185.581,122.659,166.917,100.44Z" transform="translate(0.389 0.72)" fill="#fff" opacity="0.2"/>
    <path id="Path_657" data-name="Path 657" d="M227.414,100.44c19.151,2.613,61.139,17.682,67.316,46.7s-21.723,51.011-85.12,38.413V177.3s36.063,1.256,52.378-8.892c8.669-5.388,7.17-18.462-2.35-22.128C244.438,140.4,208.749,122.659,227.414,100.44Z" transform="translate(1.8 0.72)" fill="#02a9e9"/>
    <path id="Path_658" data-name="Path 658" d="M227.414,100.44c19.151,2.613,61.139,17.682,67.316,46.7s-21.723,51.011-85.12,38.413V177.3s36.063,1.256,52.378-8.892c8.669-5.388,7.17-18.462-2.35-22.128C244.438,140.4,208.749,122.659,227.414,100.44Z" transform="translate(1.8 0.72)" fill="#fff" opacity="0.2"/>
    <path id="Path_659" data-name="Path 659" d="M193.593,243.648s.476,3.352,3.241,4.172,2.947,3.727.263,3.919-8.547-4.405-8.547-4.405l1.3-5.114Z" transform="translate(1.532 2.525)" fill="#02a9e9"/>
    <path id="Path_660" data-name="Path 660" d="M206.268,243.648s-.476,3.352-3.251,4.172-2.937,3.727-.253,3.919,8.547-4.405,8.547-4.405l-1.3-5.114Z" transform="translate(1.688 2.525)" fill="#02a9e9"/>
    <path id="Path_661" data-name="Path 661" d="M179,203.37s3.109,25.845,2.471,38.97a10.006,10.006,0,0,0,5.59,9.449l.132.061A30.786,30.786,0,0,0,200.51,255c5.742.081,13.449.729,15.444,3.575h16.811v-55.2Z" transform="translate(1.41 2.031)" opacity="0.08"/>
    <path id="Path_662" data-name="Path 662" d="M182.81,178.476l-6.33-27.486h43.7l-7.109,29.643-.618,5.874-28.721-1.6Z" transform="translate(1.378 1.364)" fill="#ffba00"/>
    <circle id="Ellipse_265" data-name="Ellipse 265" cx="3.788" cy="3.788" r="3.788" transform="translate(196.3 161.59)" fill="#fff"/>
    <path id="Path_663" data-name="Path 663" d="M175.33,194.141a10.654,10.654,0,0,1,5-9.5c3.362-2.025,8.2-3.15,13.439,1.58,9.712,8.78,3.393,58.809,3.393,58.809h-9.732s.77-20.437-2.319-34.848a14.826,14.826,0,0,0-7.028-9.358C176.707,199.954,175.472,198.081,175.33,194.141Z" transform="translate(1.364 1.77)" fill="#343f4e"/>
    <path id="Path_664" data-name="Path 664" d="M224.97,194.141a10.613,10.613,0,0,0-5-9.5c-3.352-2.025-8.2-3.15-13.429,1.58-9.712,8.78-3.393,58.809-3.393,58.809h9.732s-.739-20.457,2.3-34.868a14.847,14.847,0,0,1,7.018-9.358C223.6,199.954,224.828,198.081,224.97,194.141Z" transform="translate(1.692 1.77)" fill="#343f4e"/>
    <path id="Path_665" data-name="Path 665" d="M175.6,190.92s-3.393,9.388,3.464,12.609H224.07s6.725-2.856,2.329-12.609Z" transform="translate(1.357 1.872)" fill="#343f4e"/>
    <circle id="Ellipse_266" data-name="Ellipse 266" cx="3.038" cy="3.038" r="3.038" transform="translate(77.466 52.853)" fill="#343f4e"/>
    <circle id="Ellipse_267" data-name="Ellipse 267" cx="3.038" cy="3.038" r="3.038" transform="translate(86.5 52.853)" fill="#02a9e9"/>
    <circle id="Ellipse_268" data-name="Ellipse 268" cx="3.038" cy="3.038" r="3.038" transform="translate(95.027 52.853)" fill="#ffba00"/>
    <rect id="Rectangle_2714" data-name="Rectangle 2714" width="66.84" height="12.862" rx="6.431" transform="translate(83.543 72.054)" fill="#fff"/>
    <rect id="Rectangle_2715" data-name="Rectangle 2715" width="19.647" height="12.862" rx="6.431" transform="translate(130.736 72.054)" fill="#343f4e"/>
    <circle id="Ellipse_269" data-name="Ellipse 269" cx="11.657" cy="11.657" r="11.657" transform="translate(239.129 75.66)" fill="#fff"/>
    <rect id="Rectangle_2716" data-name="Rectangle 2716" width="22.614" height="5.398" rx="2.699" transform="translate(270.209 78.485)" fill="#c9c9c9"/>
    <rect id="Rectangle_2717" data-name="Rectangle 2717" width="22.614" height="5.398" rx="2.699" transform="translate(270.209 88.207)" fill="#c9c9c9"/>
    <rect id="Rectangle_2718" data-name="Rectangle 2718" width="46.18" height="33.977" rx="8" transform="translate(305.918 48.701)" fill="#ffba00"/>
    <path id="Path_666" data-name="Path 666" d="M336.154,67.842l-1.924-1.519v-.8a6.191,6.191,0,0,0,0-.79l1.944-1.519A.952.952,0,0,0,336.4,62L334.371,58.5a.922.922,0,0,0-1.165-.415l-2.289.922a7.27,7.27,0,0,0-1.377-.8L329.2,55.78a.942.942,0,0,0-.932-.81h-4.051a.932.932,0,0,0-.922.8l-.354,2.441a8.709,8.709,0,0,0-1.367.8l-2.3-.922a.942.942,0,0,0-1.155.415L316.092,62a.942.942,0,0,0,.233,1.215l1.934,1.519a7.487,7.487,0,0,0,0,.79,7.7,7.7,0,0,0,0,.8l-1.934,1.519a.932.932,0,0,0-.233,1.205l2.025,3.494a.942.942,0,0,0,1.165.425l2.289-.922a9,9,0,0,0,1.377.8l.344,2.42a.942.942,0,0,0,.932.81h4.051a.932.932,0,0,0,.891-.82l.344-2.431a8.793,8.793,0,0,0,1.377-.8l2.289.922a1.013,1.013,0,0,0,.344.061.932.932,0,0,0,.82-.476l2.025-3.5A1.013,1.013,0,0,0,336.154,67.842Zm-9.925,1.205a3.524,3.524,0,1,1,3.514-3.524A3.524,3.524,0,0,1,326.229,69.047Z" transform="translate(3.154 0.141)" fill="#fff"/>
    <path id="Path_667" data-name="Path 667" d="M265.639,245.36s-8.416-2.3-10.249-10.127c0,0,13.044-2.633,13.419,10.826Z" transform="translate(2.383 2.434)" fill="#02a9e9" opacity="0.58"/>
    <path id="Path_668" data-name="Path 668" d="M266.566,244.626s-5.884-9.3-.7-17.986c0,0,9.915,6.3,5.509,18.006Z" transform="translate(2.489 2.327)" fill="#02a9e9" opacity="0.73"/>
    <path id="Path_669" data-name="Path 669" d="M268,244.557s3.109-9.824,12.5-11.677c0,0,1.762,6.37-6.076,11.707Z" transform="translate(2.543 2.406)" fill="#02a9e9"/>
    <path id="Path_670" data-name="Path 670" d="M262,244.19l1.712,11.677,10.745.04,1.58-11.657Z" transform="translate(2.467 2.55)" fill="#343f4e"/>
    <path id="Path_671" data-name="Path 671" d="M217.433,162.11S208.966,182.486,183,179.8l.709,4.962,28.66,1.6.618-5.874Z" transform="translate(1.461 1.505)" opacity="0.08"/>
  </g>
</svg>
