<svg xmlns="http://www.w3.org/2000/svg" width="90.084" height="61.521" viewBox="0 0 90.084 61.521">
  <g id="kavano_logo" data-name="kavano logo" transform="translate(-62.988 -64.939)">
    <path id="Path_173" data-name="Path 173" d="M119.771,65.015a3.394,3.394,0,0,1,1.046-.071,9.4,9.4,0,0,1,1.617.061,9.927,9.927,0,0,1,1.3.093,4.519,4.519,0,0,1,.794.083l.4.055c.215.05.434.073.651.119.5.095,1,.207,1.493.327.266.093.529.2.8.263.213.068.426.139.637.217l.162.04c.12.046.241.089.363.134l.269.081c.089.033.179.067.269.1l.168.026.269.16.165.023a25.785,25.785,0,0,1,5.729,3.37,17.179,17.179,0,0,1,3.022,2.906,17.45,17.45,0,0,1,1.433,1.767,24.169,24.169,0,0,1,1.626,2.522,6.449,6.449,0,0,0,.372.695c.324.5.442,1.1.74,1.61l.032.161a7.882,7.882,0,0,1,.325.723l.021.17c.052.089.1.178.159.267.008.042.023.126.03.167.1.293.192.592.276.892.041.148.077.3.12.446.062.21.12.42.184.629q.021.121.045.242c.036.119.067.238.1.358.059.323.115.647.175.97.038.174.06.35.088.527s.064.355.1.534a14.088,14.088,0,0,1,.159,1.845,1.559,1.559,0,0,1,.075.516c-.006.945-.008,1.89,0,2.836a3.293,3.293,0,0,1-.068.618,9.19,9.19,0,0,1-.093,1.391,2.98,2.98,0,0,1-.084.888,4.7,4.7,0,0,1-.084.705c-.027.205-.043.412-.089.614a12.311,12.311,0,0,1-.239,1.391c-.048.211-.071.427-.115.638-.029.147-.055.3-.09.442s-.055.294-.087.44c-.031.118-.06.236-.092.354s-.058.236-.089.354-.058.236-.088.355-.059.236-.091.354l-.057.158c-.034.118-.062.237-.09.357-.042.15-.079.3-.12.451-.03.088-.06.176-.09.265s-.066.179-.1.268l-.036.168c-.05.119-.1.242-.142.363l-.047.161c-.034.125-.06.25-.087.377,3.291.03,6.585.024,9.876,0a.442.442,0,0,1,.279.47c0,3.65-.008,7.3,0,10.95-.1.117-.205.265-.376.271-4.822-.011-9.645,0-14.467,0-.7,0-1.4,0-2.1.022-.531.686-1.184,1.26-1.766,1.9a17.306,17.306,0,0,1-1.605,1.581,35.3,35.3,0,0,1-4.168,3.213,15.366,15.366,0,0,1-1.719,1.114,4.143,4.143,0,0,1-.588.285c-.85.553-1.8.942-2.669,1.459l-.162.025c-.441.219-.9.389-1.35.591l-.169.022-.273.158-.161.026a5.474,5.474,0,0,1-1.068.367l-.269.094a21.489,21.489,0,0,1-3.64,1.058c-.147.034-.295.059-.442.087-.186.044-.375.077-.56.125-.109.016-.218.032-.325.05-.216.05-.437.073-.652.122-.373.053-.744.122-1.122.141a12.185,12.185,0,0,1-1.682.174,12.027,12.027,0,0,1-1.687.086,3.047,3.047,0,0,1-.953.072c-.689-.013-1.38.02-2.068-.02a11.424,11.424,0,0,0-1.448-.1c-.387-.09-.792-.014-1.176-.119a13.793,13.793,0,0,1-1.414-.177c-.138-.019-.275-.035-.41-.051-.218-.052-.44-.075-.657-.123-.177-.027-.354-.048-.529-.084-.147-.029-.294-.055-.439-.089-.12-.032-.239-.061-.358-.095-.234-.035-.464-.087-.693-.142-.118-.035-.236-.065-.354-.094-.363-.089-.725-.182-1.083-.289a7.48,7.48,0,0,1-.967-.355c-.362-.113-.721-.23-1.073-.366l-.166-.041a29.364,29.364,0,0,1-3.611-1.482c-.67-.235-1.206-.72-1.85-1.009-.562-.312-1.111-.648-1.661-.981a17.423,17.423,0,0,1-1.624-1.125,36.376,36.376,0,0,1-3.4-2.718,8.607,8.607,0,0,0-1.02-.923c-.426-.489-.9-.938-1.293-1.452-.46-.432-.844-.931-1.272-1.392-.927-1.236-1.869-2.461-2.7-3.767-.37-.713-.829-1.376-1.2-2.092-.457-.7-.695-1.517-1.137-2.229-.267-.54-.484-1.1-.738-1.648-.231-.49-.336-1.025-.558-1.518-.009-.042-.025-.124-.033-.165-.052-.121-.1-.244-.151-.365,0-.043-.012-.131-.015-.175-.091-.134-.184-.266-.28-.4q-5.206.007-10.412,0l-.2-.112-.114-.2q-.009-5.48,0-10.96l.114-.2.2-.113q9.939-.008,19.879,0l.209.112.089.2a4.369,4.369,0,0,0,.1.463c.035.455,0,.912.037,1.368.1.5.107,1.008.185,1.51.042.175.066.354.094.533s.06.353.086.531c.036.149.061.3.089.451q.1.394.178.795c.032.119.06.238.089.358.042.151.079.305.123.458l.05.162c.045.15.084.3.13.455.012.041.035.122.048.164.1.331.195.664.312.99l.028.167.163.267.011.173.166.269c0,.042.012.127.016.17.082.149.161.3.243.45.007.042.022.127.029.17.251.574.528,1.135.806,1.695.207.354.42.7.644,1.048a21.3,21.3,0,0,0,2.907,4.021c.68.676,1.317,1.393,2,2.067a27.326,27.326,0,0,0,5.77,3.917,24.4,24.4,0,0,0,4.165,1.61q.314.077.623.177c.12.028.241.057.361.09.149.025.3.05.447.085.079.02.159.042.24.065.174.036.352.058.529.083.392.108.8.134,1.2.213.19.018.381.029.571.049a5.492,5.492,0,0,0,1.066.081,1.727,1.727,0,0,0,.6.074q1.29-.009,2.58,0a1.807,1.807,0,0,0,.608-.073,5.8,5.8,0,0,0,1.157-.086,10.121,10.121,0,0,0,1.376-.14c.176-.04.354-.063.534-.087.445-.1.9-.165,1.34-.263.15-.044.3-.081.454-.124.121-.029.242-.057.364-.088l.163-.046c.12-.049.243-.094.365-.14l.29-.069a3.164,3.164,0,0,0-.891-.242c-.162-.032-.322-.073-.479-.119-.235-.068-.472-.124-.708-.183l-.164-.052c-.152-.043-.3-.08-.454-.12l-.266-.091-.267-.087-.268-.1-.165-.037c-.332-.138-.67-.261-1-.409l-.163-.024-.268-.162-.166-.019a28.613,28.613,0,0,1-4.634-2.768c-.593-.535-1.242-1.007-1.8-1.577a8.83,8.83,0,0,1-1.506-1.5,14.37,14.37,0,0,1-1.292-1.53c-.471-.74-1.027-1.421-1.463-2.183a25.353,25.353,0,0,1-1.469-2.776,12.254,12.254,0,0,1-.653-1.6l-.1-.268-.042-.162q-.051-.134-.1-.268c-.03-.089-.059-.178-.087-.266s-.059-.178-.088-.266-.06-.175-.089-.262c-.068-.273-.132-.546-.216-.813-.016-.082-.031-.163-.045-.244-.047-.154-.085-.31-.13-.463-.026-.15-.05-.3-.083-.447-.021-.081-.043-.16-.063-.239-.038-.174-.062-.351-.088-.527-.052-.247-.062-.5-.122-.745-.019-.163-.033-.326-.052-.488a3.993,3.993,0,0,1-.084-.8,10.654,10.654,0,0,1-.084-1.59,5.393,5.393,0,0,1-.039-1.652c.139-.58-.036-1.186.123-1.76a11.908,11.908,0,0,1,.169-1.5c.027-.177.05-.353.088-.528.027-.148.055-.3.091-.443s.054-.292.09-.435c.062-.265.116-.531.176-.8.029-.119.058-.237.091-.354s.059-.238.091-.356c.014-.04.041-.12.055-.159.043-.151.079-.3.121-.456.031-.09.064-.18.1-.268.011-.04.031-.119.042-.158.232-.49.327-1.032.568-1.52a5.2,5.2,0,0,1,.283-.625c.008-.04.023-.119.03-.159.195-.339.326-.708.5-1.056a26,26,0,0,1,3.9-5.493c.274-.436.738-.684,1.067-1.07.393-.462.922-.778,1.337-1.22a22.184,22.184,0,0,1,3.3-2.212,10.056,10.056,0,0,1,1.2-.662l.356-.175.188-.1.171-.023c.151-.083.3-.164.454-.247l.169-.015.272-.165.171-.012.269-.163.168-.027c.09-.033.18-.065.273-.1.121-.044.243-.086.365-.131l.162-.042a16.956,16.956,0,0,1,2.6-.743c.151-.029.3-.057.453-.094l.406-.053c.276-.06.561-.062.839-.125a17.319,17.319,0,0,1,1.817-.131m.317,11.631a3.22,3.22,0,0,1-.713.092c-.217.053-.439.076-.656.126l-.244.052c-.154.044-.308.081-.46.125-.121.028-.241.057-.359.09l-.162.047a11.761,11.761,0,0,0-1.352.558c-.338.2-.694.375-1.049.543a14.709,14.709,0,0,0-1.879,1.291c-.5.447-.908.982-1.4,1.437a16.188,16.188,0,0,0-1.323,1.776c-.086.15-.179.295-.269.443-.073.143-.144.287-.216.43a7.9,7.9,0,0,0-.411.889c-.04.119-.078.24-.118.359l-.1.269c-.008.042-.022.125-.03.167q-.075.13-.147.263c-.024.123-.047.246-.076.368-.016.04-.05.119-.067.159-.066.332-.121.667-.2,1-.028.181-.052.362-.1.54a3.4,3.4,0,0,1-.091.8,13.754,13.754,0,0,0,0,1.531,7.658,7.658,0,0,1,.1.988c.056.215.079.437.128.654.019.08.039.16.06.241.034.148.058.3.084.448.044.151.082.3.126.457l.058.16c.028.123.052.247.077.371.049.088.1.176.149.264l.014.172.164.269.018.167c.2.358.369.732.534,1.107a10.914,10.914,0,0,0,1.612,2.291c.474.469.945.942,1.4,1.429.425.276.776.647,1.2.924a19.232,19.232,0,0,0,2.045,1.1l.166.022.271.142c.18.055.361.114.539.178l.158.055a8.4,8.4,0,0,1,1.258.351,3.422,3.422,0,0,1,.61.1c.354-.02.68.164,1.035.131a9.408,9.408,0,0,0,2.775-.236l.116.008c.5-.169,1.021-.245,1.508-.445l.268-.1.165-.042c.091-.03.182-.059.274-.086l.268-.147.17-.02c.085-.05.172-.1.26-.146.179-.085.358-.173.537-.261.178-.112.357-.222.545-.319a15.242,15.242,0,0,0,2.235-1.681c.461-.405.778-.938,1.2-1.378a13.358,13.358,0,0,0,1.154-1.681c.268-.439.434-.928.664-1.386.03-.09.061-.18.1-.267.008-.042.023-.127.031-.169.047-.089.1-.179.144-.267.027-.093.055-.185.086-.276.012-.041.038-.121.052-.162.031-.118.059-.236.09-.354.043-.153.081-.307.126-.458.068-.326.108-.657.172-.982a7.454,7.454,0,0,0,.119-1.445,10.225,10.225,0,0,0-.064-1.747c-.02-.163-.036-.327-.052-.489-.059-.244-.07-.5-.121-.741-.019-.081-.036-.162-.053-.242-.048-.155-.088-.311-.136-.465-.012-.083-.024-.166-.034-.25-.05-.122-.1-.245-.147-.366l-.036-.158c-.254-.56-.408-1.162-.713-1.7-.109-.212-.231-.416-.354-.619a10.45,10.45,0,0,0-1.283-1.843,9.091,9.091,0,0,0-1.467-1.452,13.141,13.141,0,0,0-2.874-1.868l-.178-.02c-.119-.073-.237-.148-.354-.224-.326-.124-.648-.259-.982-.358l-.266-.083c-.09-.032-.179-.063-.266-.1-.27-.058-.541-.111-.808-.173-.181-.025-.362-.048-.539-.088a3.4,3.4,0,0,1-.628-.1C121.478,76.616,120.781,76.614,120.088,76.647Z" transform="translate(0 0)" fill="#02a9e9"/>
    <path id="Path_174" data-name="Path 174" d="M643.186,260.092a10.72,10.72,0,0,1,2.448-.145,2.116,2.116,0,0,1,.506.059c.173.026.349.05.523.084.118.033.236.066.356.1l.162.042c.121.049.244.095.366.144l.166.029a9.2,9.2,0,0,1,1.437.811,6.83,6.83,0,0,1,1.767,1.962c.235.407.419.842.646,1.255.009.041.026.123.035.164.046.151.087.3.136.455a4.058,4.058,0,0,1,.14.775,10.087,10.087,0,0,1,.059,1.656,5.8,5.8,0,0,1-.145,1.388,7.222,7.222,0,0,1-.869,2.126,8.55,8.55,0,0,1-1.5,1.7,7.033,7.033,0,0,1-1.219.8,7.2,7.2,0,0,1-1.542.586,5.909,5.909,0,0,1-1.378.144,8.287,8.287,0,0,1-1.478-.058,4.985,4.985,0,0,1-1.31-.326,8.024,8.024,0,0,1-2.325-1.422,5.817,5.817,0,0,1-1.049-1.262,3.655,3.655,0,0,1-.511-.9c-.141-.448-.347-.872-.488-1.32a8.512,8.512,0,0,1-.055-3.462c.048-.2.1-.4.148-.6.029-.09.06-.179.089-.268.179-.342.281-.719.47-1.056.3-.518.677-.986,1.016-1.479a2.106,2.106,0,0,1,.491-.475,6.232,6.232,0,0,1,1.854-1.146l.27-.124.271-.09.16-.048C642.948,260.156,643.067,260.124,643.186,260.092Z" transform="translate(-523.834 -177.758)" fill="#02a9e9"/>
  </g>
</svg>
