<svg xmlns="http://www.w3.org/2000/svg" width="60" height="40.976" viewBox="0 0 60 40.976">
  <g id="kavano_logo" data-name="kavano logo" transform="translate(-62.987 -64.939)">
    <path id="Path_173" data-name="Path 173" d="M100.808,64.99a2.26,2.26,0,0,1,.7-.047,6.258,6.258,0,0,1,1.077.041,6.611,6.611,0,0,1,.865.062,3.011,3.011,0,0,1,.529.055l.269.037c.143.033.289.049.434.08.334.063.664.138.995.218.177.062.352.13.534.175.142.045.284.093.424.144l.108.027c.08.031.16.06.242.09l.179.054.179.068.112.017.179.107.11.015a17.174,17.174,0,0,1,3.816,2.245,11.442,11.442,0,0,1,2.013,1.935,11.625,11.625,0,0,1,.954,1.177,16.1,16.1,0,0,1,1.083,1.68,4.3,4.3,0,0,0,.248.463c.216.333.295.73.493,1.072l.021.107a5.249,5.249,0,0,1,.217.482l.014.113c.035.059.07.119.106.178.005.028.015.084.02.111.07.2.128.394.184.594.027.1.051.2.08.3.041.14.08.28.122.419q.014.08.03.161c.024.079.044.159.067.239.04.215.076.431.117.646.025.116.04.233.059.351s.043.236.063.355a9.384,9.384,0,0,1,.106,1.229,1.039,1.039,0,0,1,.05.344c0,.63-.005,1.259,0,1.889a2.194,2.194,0,0,1-.046.411,6.121,6.121,0,0,1-.062.927,1.985,1.985,0,0,1-.056.591,3.129,3.129,0,0,1-.056.47c-.018.137-.029.274-.059.409a8.2,8.2,0,0,1-.159.927c-.032.14-.047.284-.077.425-.02.1-.037.2-.06.294s-.037.2-.058.293c-.021.078-.04.157-.061.236s-.038.157-.059.236-.038.157-.059.236-.04.157-.061.236l-.038.106c-.022.078-.041.158-.06.238-.028.1-.053.2-.08.3-.02.058-.04.117-.06.176s-.044.119-.065.179l-.024.112c-.033.08-.063.161-.095.242l-.031.107c-.022.083-.04.167-.058.251,2.192.02,4.386.016,6.578,0a.294.294,0,0,1,.186.313c0,2.431-.005,4.862,0,7.293-.067.078-.137.176-.25.18-3.212-.007-6.424,0-9.636,0-.466,0-.933,0-1.4.015-.354.457-.789.839-1.176,1.267a11.53,11.53,0,0,1-1.069,1.053,23.511,23.511,0,0,1-2.776,2.14,10.232,10.232,0,0,1-1.145.742,2.76,2.76,0,0,1-.392.19c-.566.368-1.2.627-1.778.971l-.108.016c-.293.146-.6.259-.9.394l-.112.015-.182.106-.107.017a3.646,3.646,0,0,1-.711.245l-.179.062a14.313,14.313,0,0,1-2.424.7c-.1.022-.2.039-.295.058-.124.029-.25.051-.373.083-.073.011-.145.021-.217.034-.144.033-.291.049-.434.081-.248.035-.5.081-.747.094a8.113,8.113,0,0,1-1.12.116,8.01,8.01,0,0,1-1.124.057,2.03,2.03,0,0,1-.635.048c-.459-.009-.919.014-1.377-.014a7.609,7.609,0,0,0-.964-.067c-.258-.06-.528-.009-.783-.08a9.187,9.187,0,0,1-.942-.118c-.092-.013-.183-.023-.273-.034-.145-.035-.293-.05-.438-.082-.118-.018-.236-.032-.353-.056-.1-.019-.2-.037-.292-.059-.08-.021-.159-.041-.238-.063-.156-.023-.309-.058-.462-.094-.079-.023-.157-.043-.236-.062-.242-.06-.483-.121-.721-.193a4.983,4.983,0,0,1-.644-.236c-.241-.075-.48-.153-.715-.244l-.111-.027a19.557,19.557,0,0,1-2.405-.987c-.446-.157-.8-.48-1.232-.672-.375-.207-.74-.432-1.106-.653a11.605,11.605,0,0,1-1.082-.749,24.226,24.226,0,0,1-2.267-1.81A5.733,5.733,0,0,0,76.378,99c-.283-.326-.6-.625-.861-.967-.306-.288-.562-.62-.847-.927-.617-.823-1.245-1.639-1.8-2.509-.246-.475-.552-.917-.8-1.394-.3-.469-.463-1.01-.757-1.484-.178-.36-.322-.734-.492-1.1-.154-.327-.224-.683-.372-1.011-.006-.028-.017-.083-.022-.11-.034-.081-.066-.163-.1-.243,0-.029-.008-.087-.01-.117-.061-.089-.122-.177-.186-.264q-3.468,0-6.935,0l-.135-.075-.076-.134q-.006-3.65,0-7.3l.076-.133.135-.075q6.62-.005,13.24,0l.139.075.059.131a2.909,2.909,0,0,0,.063.308c.023.3,0,.608.025.911.068.33.071.671.123,1.006.028.117.044.236.063.355s.04.235.057.354c.024.1.041.2.059.3q.066.263.118.529c.021.079.04.159.059.239.028.1.053.2.082.3l.033.108c.03.1.056.2.086.3l.032.109c.065.22.13.442.208.66l.019.111.109.178.007.115.111.179c0,.028.008.085.011.113.054.1.107.2.162.3l.02.113c.167.382.351.756.537,1.129.138.236.28.469.429.7a14.189,14.189,0,0,0,1.936,2.678c.453.45.877.928,1.331,1.377a18.2,18.2,0,0,0,3.843,2.609,16.25,16.25,0,0,0,2.774,1.072q.209.051.415.118c.08.019.16.038.24.06.1.017.2.033.3.057l.16.043c.116.024.234.038.352.055.261.072.532.089.8.142.127.012.254.019.38.032a3.658,3.658,0,0,0,.71.054,1.15,1.15,0,0,0,.4.05q.859-.006,1.718,0a1.2,1.2,0,0,0,.4-.049,3.864,3.864,0,0,0,.77-.057,6.741,6.741,0,0,0,.916-.093c.117-.027.236-.042.356-.058.3-.065.6-.11.892-.175.1-.029.2-.054.3-.083.08-.019.162-.038.243-.059l.108-.031c.08-.032.162-.062.243-.093l.193-.046a2.107,2.107,0,0,0-.593-.161c-.108-.021-.214-.048-.319-.079-.156-.045-.314-.083-.472-.122l-.109-.035c-.1-.028-.2-.053-.3-.08l-.177-.061-.178-.058-.179-.065-.11-.025c-.221-.092-.446-.174-.664-.272l-.109-.016-.179-.108L95.33,96.3a19.059,19.059,0,0,1-3.086-1.843c-.4-.356-.827-.671-1.2-1.05a5.881,5.881,0,0,1-1-1,9.572,9.572,0,0,1-.86-1.019c-.314-.493-.684-.947-.974-1.454a16.888,16.888,0,0,1-.979-1.849,8.162,8.162,0,0,1-.435-1.065l-.064-.179-.028-.108q-.034-.089-.066-.179c-.02-.06-.039-.118-.058-.177s-.04-.119-.059-.177-.04-.117-.059-.174c-.045-.182-.088-.364-.144-.542-.011-.055-.021-.108-.03-.163-.031-.1-.057-.206-.086-.308s-.033-.2-.056-.3l-.042-.159c-.025-.116-.041-.234-.059-.351-.034-.164-.041-.333-.081-.5-.012-.108-.022-.217-.034-.325a2.66,2.66,0,0,1-.056-.531,7.1,7.1,0,0,1-.056-1.059,3.592,3.592,0,0,1-.026-1.1c.093-.386-.024-.79.082-1.172a7.932,7.932,0,0,1,.112-1c.018-.118.033-.235.059-.351.018-.1.037-.2.06-.3s.036-.195.06-.29c.041-.176.078-.354.117-.531.02-.079.038-.158.06-.236s.039-.159.061-.237l.037-.106c.028-.1.053-.2.08-.3.021-.06.043-.12.065-.179.007-.027.021-.08.028-.105.154-.327.218-.687.378-1.012a3.463,3.463,0,0,1,.189-.416c.005-.027.015-.08.02-.106.13-.226.217-.472.334-.7a17.319,17.319,0,0,1,2.6-3.658c.183-.291.492-.456.711-.713.262-.308.614-.518.89-.812a14.776,14.776,0,0,1,2.2-1.473,6.7,6.7,0,0,1,.8-.441l.237-.117.125-.067.114-.015.3-.164.112-.01.181-.11.114-.008.179-.108.112-.018c.06-.022.12-.044.182-.064l.243-.087.108-.028a11.293,11.293,0,0,1,1.73-.5c.1-.019.2-.038.3-.062l.27-.035c.184-.04.374-.041.559-.083a11.534,11.534,0,0,1,1.21-.087m.211,7.747a2.145,2.145,0,0,1-.475.061c-.144.035-.292.051-.437.084l-.163.035c-.1.029-.205.054-.306.083-.08.019-.16.038-.239.06l-.108.031a7.832,7.832,0,0,0-.9.371c-.225.135-.462.25-.7.362a9.8,9.8,0,0,0-1.251.86c-.333.3-.6.654-.932.957a10.781,10.781,0,0,0-.881,1.183c-.057.1-.12.2-.179.295s-.1.191-.144.286A5.262,5.262,0,0,0,94.03,78c-.027.08-.052.16-.079.239l-.066.179c-.005.028-.015.083-.02.111q-.05.087-.1.175c-.016.082-.031.164-.05.245-.011.027-.033.08-.044.106-.044.221-.08.444-.135.664-.018.12-.034.241-.064.36a2.264,2.264,0,0,1-.061.532,9.159,9.159,0,0,0,0,1.02,5.1,5.1,0,0,1,.063.658c.037.143.053.291.085.436.012.053.026.107.04.16.022.1.038.2.056.3s.054.2.084.3l.038.107c.019.082.035.164.051.247.033.058.066.117.1.176l.009.114.109.179.012.111c.133.239.246.487.356.737a7.27,7.27,0,0,0,1.074,1.526c.316.312.63.627.933.952.283.184.517.431.8.615a12.812,12.812,0,0,0,1.362.735l.111.015.18.094c.12.037.24.076.359.118l.105.037a5.592,5.592,0,0,1,.838.234,2.28,2.28,0,0,1,.406.068c.235-.014.453.109.689.087a6.266,6.266,0,0,0,1.848-.157l.078.005c.331-.113.68-.163,1-.3l.179-.065.11-.028c.06-.02.121-.039.183-.057l.179-.1.113-.014c.057-.033.115-.065.173-.1.12-.057.238-.115.357-.174.118-.075.238-.148.363-.212a10.151,10.151,0,0,0,1.489-1.119c.307-.27.518-.625.8-.918a8.9,8.9,0,0,0,.769-1.119c.179-.292.289-.618.442-.923.02-.06.041-.12.063-.178l.021-.113c.031-.06.063-.119.1-.178s.037-.123.057-.184c.008-.027.025-.081.034-.108.021-.078.04-.157.06-.236.028-.1.054-.2.084-.305.046-.217.072-.437.115-.654a4.965,4.965,0,0,0,.079-.963,6.81,6.81,0,0,0-.043-1.164c-.014-.108-.024-.218-.035-.325-.039-.163-.047-.33-.08-.493-.012-.054-.024-.108-.036-.162-.032-.1-.059-.207-.091-.309-.008-.055-.016-.111-.022-.166-.033-.081-.065-.163-.1-.244l-.024-.1c-.169-.373-.272-.774-.475-1.132-.073-.141-.154-.277-.236-.412a6.96,6.96,0,0,0-.854-1.227A6.055,6.055,0,0,0,107,74.74a8.752,8.752,0,0,0-1.914-1.244l-.118-.014c-.079-.049-.158-.1-.235-.149-.217-.083-.431-.173-.654-.239l-.177-.055-.177-.064c-.18-.039-.36-.074-.538-.115-.121-.017-.241-.032-.359-.058a2.263,2.263,0,0,1-.418-.065C101.945,72.716,101.481,72.715,101.019,72.737Z" transform="translate(0 0)" fill="#e7eaeb"/>
    <path id="Path_174" data-name="Path 174" d="M641.424,260.043a7.14,7.14,0,0,1,1.631-.1,1.408,1.408,0,0,1,.337.039c.115.018.232.033.348.056.079.022.157.044.237.068l.108.028.244.1.11.019a6.121,6.121,0,0,1,.957.54,4.549,4.549,0,0,1,1.177,1.307c.156.271.279.561.43.836l.024.109c.031.1.058.2.09.3a2.7,2.7,0,0,1,.093.516,6.733,6.733,0,0,1,.039,1.1,3.866,3.866,0,0,1-.1.924,4.811,4.811,0,0,1-.579,1.416,5.7,5.7,0,0,1-1,1.132,4.686,4.686,0,0,1-.812.535,4.8,4.8,0,0,1-1.027.39,3.936,3.936,0,0,1-.918.1,5.517,5.517,0,0,1-.984-.039,3.32,3.32,0,0,1-.872-.217,5.345,5.345,0,0,1-1.549-.947,3.875,3.875,0,0,1-.7-.841,2.434,2.434,0,0,1-.34-.6c-.094-.3-.231-.581-.325-.879a5.669,5.669,0,0,1-.037-2.306c.032-.135.066-.268.1-.4l.059-.178c.119-.228.187-.479.313-.7.2-.345.451-.657.677-.985a1.4,1.4,0,0,1,.327-.317,4.151,4.151,0,0,1,1.235-.763l.18-.083.18-.06.106-.032C641.266,260.086,641.345,260.065,641.424,260.043Z" transform="translate(-540.895 -183.518)" fill="#e7eaeb"/>
  </g>
</svg>
