<svg xmlns="http://www.w3.org/2000/svg" width="210.074" height="143.465" viewBox="0 0 210.074 143.465">
  <g id="kavano_logo" data-name="kavano logo" transform="translate(-62.987 -64.939)">
    <path id="Path_173" data-name="Path 173" d="M195.406,65.117a7.915,7.915,0,0,1,2.438-.165,21.911,21.911,0,0,1,3.77.142,23.148,23.148,0,0,1,3.029.217,10.538,10.538,0,0,1,1.852.194c.311.043.626.085.943.128.5.116,1.013.171,1.518.279,1.168.221,2.326.483,3.482.762.619.217,1.233.456,1.871.613.5.159.994.324,1.485.506.1.025.282.07.377.093.28.107.561.208.847.314.207.062.416.124.628.19s.416.157.628.239c.1.014.294.043.392.06l.628.374.385.054a60.13,60.13,0,0,1,13.36,7.859,40.06,40.06,0,0,1,7.047,6.776,40.7,40.7,0,0,1,3.341,4.12,56.363,56.363,0,0,1,3.791,5.882,15.043,15.043,0,0,0,.868,1.62c.756,1.166,1.032,2.555,1.726,3.754.019.095.056.283.075.376a18.387,18.387,0,0,1,.758,1.686l.05.4c.122.206.244.415.371.623.019.1.054.293.07.39.244.683.447,1.381.644,2.08.1.345.18.7.28,1.04.145.489.28.98.429,1.468q.05.282.106.563c.083.277.155.555.234.836.139.753.267,1.509.408,2.262.089.4.141.817.205,1.228.091.411.149.828.222,1.245a32.856,32.856,0,0,1,.371,4.3,3.636,3.636,0,0,1,.174,1.2c-.014,2.2-.019,4.409,0,6.613a7.681,7.681,0,0,1-.159,1.441c-.182,1.073.128,2.192-.218,3.244a6.95,6.95,0,0,1-.2,2.07,10.95,10.95,0,0,1-.195,1.645c-.062.479-.1.96-.207,1.432a28.7,28.7,0,0,1-.557,3.244c-.112.491-.166.995-.269,1.488-.068.343-.128.689-.209,1.03s-.128.685-.2,1.026c-.073.274-.141.551-.213.826s-.135.551-.207.826-.135.551-.205.828-.139.551-.213.826l-.133.369c-.079.274-.145.553-.209.832-.1.349-.185.7-.28,1.053-.07.2-.141.411-.209.617s-.153.417-.228.625c-.021.1-.062.293-.083.392-.116.279-.222.563-.331.846l-.11.376c-.079.291-.141.584-.2.879,7.675.07,15.357.056,23.03.006a1.031,1.031,0,0,1,.65,1.1c0,8.512-.019,17.023.01,25.535-.234.272-.479.617-.876.632-11.245-.025-22.491,0-33.738-.01-1.632,0-3.267-.006-4.9.052-1.239,1.6-2.761,2.939-4.118,4.435a40.362,40.362,0,0,1-3.743,3.686,82.324,82.324,0,0,1-9.72,7.492,35.829,35.829,0,0,1-4.009,2.6,9.66,9.66,0,0,1-1.371.665c-1.982,1.29-4.189,2.2-6.225,3.4l-.377.058c-1.027.51-2.107.906-3.149,1.379l-.394.052c-.213.122-.425.246-.636.37l-.375.06a12.765,12.765,0,0,1-2.49.856c-.211.072-.421.145-.628.219a50.11,50.11,0,0,1-8.487,2.466c-.342.078-.688.138-1.032.2-.433.1-.874.18-1.305.291-.255.037-.508.074-.758.118-.5.116-1.019.171-1.521.285-.87.124-1.736.285-2.616.328a28.41,28.41,0,0,1-3.922.407c-1.282.347-2.629.037-3.934.2a7.106,7.106,0,0,1-2.223.167c-1.608-.031-3.217.047-4.823-.048-1.094-.353-2.262-.025-3.377-.235-.9-.21-1.848-.033-2.743-.279a32.165,32.165,0,0,1-3.3-.413c-.321-.045-.64-.081-.957-.12-.508-.122-1.025-.175-1.533-.287-.412-.062-.826-.111-1.235-.2-.344-.068-.686-.128-1.023-.206-.28-.074-.557-.142-.835-.221-.545-.081-1.081-.2-1.616-.33-.276-.08-.551-.151-.827-.219-.847-.208-1.69-.425-2.525-.675a17.441,17.441,0,0,1-2.256-.828c-.843-.264-1.682-.537-2.5-.854-.1-.023-.29-.072-.387-.095a68.472,68.472,0,0,1-8.421-3.457c-1.562-.549-2.813-1.68-4.313-2.353-1.311-.726-2.592-1.511-3.874-2.287a40.632,40.632,0,0,1-3.787-2.623,84.828,84.828,0,0,1-7.936-6.338,20.069,20.069,0,0,0-2.378-2.153c-.992-1.141-2.092-2.188-3.016-3.387-1.073-1.007-1.968-2.171-2.966-3.247-2.161-2.883-4.359-5.74-6.289-8.784-.862-1.663-1.933-3.209-2.79-4.879-1.065-1.641-1.62-3.538-2.652-5.2-.621-1.259-1.129-2.57-1.722-3.843-.539-1.143-.783-2.39-1.3-3.54-.021-.1-.058-.289-.077-.386-.12-.283-.232-.57-.352-.85-.008-.1-.027-.305-.035-.409-.213-.312-.429-.621-.653-.923q-12.141.015-24.281,0c-.118-.064-.356-.2-.474-.262L63,148.006q-.022-12.78,0-25.559l.265-.464.472-.264q23.178-.019,46.358,0l.487.262c.052.116.155.343.207.458a10.186,10.186,0,0,0,.222,1.079c.081,1.061,0,2.128.087,3.191.238,1.156.249,2.351.431,3.521.1.409.153.826.22,1.242.089.409.141.824.2,1.238.083.347.143.7.207,1.053q.23.919.414,1.853c.075.277.139.555.207.836.1.353.184.712.286,1.067l.116.378c.106.351.2.708.3,1.061.027.095.083.285.112.382.228.772.454,1.548.727,2.31.017.1.05.291.066.39.126.206.253.415.381.623l.025.4c.128.206.257.417.387.627.008.1.027.3.037.4.191.347.375.7.566,1.048.017.1.052.3.068.4.584,1.337,1.231,2.646,1.879,3.952.483.826.98,1.643,1.5,2.444a49.68,49.68,0,0,0,6.778,9.376c1.585,1.577,3.072,3.249,4.661,4.821a63.723,63.723,0,0,0,13.455,9.135c3.184,1.379,6.312,2.974,9.714,3.754q.733.18,1.452.413c.28.066.561.132.841.211.348.058.7.116,1.042.2.184.048.371.1.559.151.406.085.82.134,1.233.194.914.252,1.862.312,2.788.5.443.041.889.068,1.332.114a12.81,12.81,0,0,0,2.486.19,4.027,4.027,0,0,0,1.4.173q3.008-.022,6.016,0a4.215,4.215,0,0,0,1.417-.171,13.532,13.532,0,0,0,2.7-.2,23.6,23.6,0,0,0,3.209-.326c.41-.093.827-.147,1.245-.2,1.038-.227,2.088-.384,3.124-.613.35-.1.7-.19,1.059-.289.282-.068.565-.132.849-.206l.379-.107c.28-.113.566-.219.851-.326l.675-.161a7.377,7.377,0,0,0-2.078-.563c-.377-.074-.75-.169-1.117-.277-.547-.159-1.1-.289-1.651-.427-.1-.029-.288-.091-.383-.122-.354-.1-.708-.186-1.059-.281l-.621-.213c-.209-.068-.416-.136-.624-.2l-.626-.229c-.1-.023-.29-.066-.385-.087-.775-.322-1.562-.609-2.326-.953-.1-.014-.286-.043-.381-.056-.209-.128-.419-.254-.626-.378l-.387-.043a66.726,66.726,0,0,1-10.805-6.454c-1.384-1.247-2.9-2.349-4.2-3.678a20.592,20.592,0,0,1-3.511-3.5,33.51,33.51,0,0,1-3.012-3.569c-1.1-1.725-2.395-3.315-3.412-5.092a59.128,59.128,0,0,1-3.426-6.472,28.575,28.575,0,0,1-1.523-3.729q-.112-.316-.224-.625c-.025-.095-.072-.283-.1-.378q-.118-.313-.23-.625c-.07-.208-.137-.415-.2-.621s-.139-.415-.205-.621-.141-.409-.207-.611c-.158-.636-.309-1.273-.5-1.9-.037-.192-.072-.38-.106-.57-.11-.359-.2-.722-.3-1.079-.06-.351-.116-.7-.195-1.042-.05-.188-.1-.374-.147-.557-.089-.407-.145-.819-.205-1.23-.12-.576-.145-1.166-.284-1.738-.044-.38-.077-.76-.12-1.137a9.312,9.312,0,0,1-.2-1.858,24.843,24.843,0,0,1-.2-3.709,12.577,12.577,0,0,1-.091-3.853c.325-1.352-.083-2.766.286-4.105a27.769,27.769,0,0,1,.394-3.49c.062-.413.116-.823.205-1.23.064-.345.128-.691.211-1.034.064-.341.126-.681.209-1.015.145-.617.271-1.238.41-1.857.068-.277.135-.553.211-.826s.137-.555.213-.83c.033-.093.1-.279.128-.372.1-.353.184-.71.282-1.063.072-.211.149-.419.228-.625.025-.093.073-.279.1-.369.541-1.143.762-2.407,1.324-3.544a12.126,12.126,0,0,1,.661-1.457c.019-.093.054-.279.07-.372.454-.79.76-1.651,1.17-2.462,2.674-4.5,5.322-9.114,9.094-12.809.64-1.017,1.721-1.6,2.488-2.5.918-1.077,2.15-1.814,3.118-2.844a51.732,51.732,0,0,1,7.686-5.158,23.451,23.451,0,0,1,2.809-1.544c.276-.134.553-.27.831-.409.11-.058.329-.175.439-.235.1-.014.3-.041.4-.054.352-.194.706-.382,1.059-.576.1-.008.294-.025.394-.035q.314-.192.634-.384c.1-.008.3-.021.4-.029.207-.126.416-.254.628-.38.1-.014.294-.045.391-.062.209-.076.421-.153.636-.225.282-.1.566-.2.851-.305l.377-.1a39.541,39.541,0,0,1,6.057-1.734c.352-.068.706-.132,1.056-.219.313-.041.63-.08.947-.124.644-.14,1.309-.144,1.956-.291a40.389,40.389,0,0,1,4.236-.305m.74,27.124a7.509,7.509,0,0,1-1.663.215c-.505.124-1.023.178-1.529.293-.193.041-.383.08-.57.122-.358.1-.719.19-1.073.291-.282.066-.561.132-.837.211-.093.027-.282.08-.377.109a27.424,27.424,0,0,0-3.153,1.3c-.789.473-1.618.875-2.447,1.267a34.3,34.3,0,0,0-4.381,3.011c-1.164,1.042-2.117,2.291-3.265,3.352a37.749,37.749,0,0,0-3.085,4.142c-.2.349-.418.687-.628,1.032-.17.334-.336.669-.5,1a18.42,18.42,0,0,0-.959,2.074c-.093.279-.182.559-.276.838-.077.208-.153.417-.23.627-.019.1-.052.291-.07.39q-.174.3-.342.613c-.056.287-.11.574-.176.859-.037.093-.116.279-.155.371-.153.774-.282,1.556-.474,2.324-.064.421-.12.844-.226,1.259a7.924,7.924,0,0,1-.213,1.862,32.075,32.075,0,0,0-.01,3.571,17.86,17.86,0,0,1,.222,2.3c.131.5.184,1.02.3,1.525.043.186.091.374.141.561.079.345.135.693.195,1.044.1.353.191.71.294,1.065.033.093.1.281.135.374.066.287.122.576.18.865.114.2.23.411.348.615.008.1.025.3.033.4.126.208.255.417.383.627l.041.39c.464.836.86,1.707,1.245,2.582a25.452,25.452,0,0,0,3.76,5.341c1.106,1.094,2.2,2.2,3.267,3.333.99.644,1.808,1.509,2.8,2.155a44.85,44.85,0,0,0,4.769,2.572l.387.052c.209.109.418.221.632.33.421.128.841.266,1.257.415.091.033.276.1.369.128a19.578,19.578,0,0,1,2.933.819,7.984,7.984,0,0,1,1.423.239c.824-.047,1.585.382,2.413.305,2.161-.064,4.392.153,6.472-.551l.271.019c1.158-.394,2.38-.572,3.517-1.038l.626-.227.385-.1c.211-.07.425-.138.64-.2.207-.116.417-.229.626-.343l.4-.048c.2-.116.4-.229.607-.341.419-.2.835-.4,1.251-.609.414-.262.833-.518,1.27-.743a35.54,35.54,0,0,0,5.212-3.919c1.075-.945,1.815-2.188,2.8-3.213a31.149,31.149,0,0,0,2.691-3.919c.626-1.024,1.013-2.165,1.548-3.232.07-.211.143-.419.222-.623.019-.1.054-.3.073-.394.11-.208.222-.417.336-.623.062-.217.128-.431.2-.644.029-.1.089-.283.12-.378.072-.274.139-.551.209-.826.1-.357.188-.716.294-1.069.159-.76.253-1.531.4-2.291a17.383,17.383,0,0,0,.278-3.37,23.843,23.843,0,0,0-.149-4.074c-.048-.38-.083-.762-.122-1.139-.137-.57-.164-1.156-.282-1.728-.044-.19-.085-.378-.124-.565-.112-.361-.205-.724-.317-1.084-.029-.194-.056-.388-.079-.582-.116-.285-.228-.572-.342-.854-.021-.093-.062-.277-.083-.367-.592-1.306-.951-2.71-1.663-3.963-.255-.493-.539-.97-.827-1.443a24.369,24.369,0,0,0-2.991-4.3,21.2,21.2,0,0,0-3.42-3.387,30.644,30.644,0,0,0-6.7-4.357l-.414-.048c-.278-.171-.553-.345-.824-.522-.76-.289-1.51-.6-2.289-.836-.209-.064-.414-.128-.619-.194s-.416-.147-.621-.223c-.63-.136-1.262-.258-1.885-.4-.423-.058-.845-.111-1.257-.2A7.924,7.924,0,0,1,201,92.239C199.385,92.169,197.761,92.164,196.145,92.241Z" transform="translate(0 0)" fill="#02a9e9"/>
    <path id="Path_174" data-name="Path 174" d="M650.213,260.288a25,25,0,0,1,5.709-.337,4.935,4.935,0,0,1,1.179.137c.4.062.813.116,1.219.2.275.077.551.153.829.238.1.025.285.075.378.1.283.114.569.221.854.335l.387.068a21.45,21.45,0,0,1,3.35,1.89,15.924,15.924,0,0,1,4.12,4.574c.548.949.978,1.963,1.506,2.926.021.1.062.287.082.382.108.352.2.709.317,1.061a9.469,9.469,0,0,1,.327,1.807,23.543,23.543,0,0,1,.138,3.861,13.53,13.53,0,0,1-.337,3.236,16.844,16.844,0,0,1-2.026,4.957,19.941,19.941,0,0,1-3.5,3.962,16.4,16.4,0,0,1-2.843,1.872,16.8,16.8,0,0,1-3.6,1.367,13.784,13.784,0,0,1-3.214.337,19.319,19.319,0,0,1-3.446-.136,11.623,11.623,0,0,1-3.054-.761,18.712,18.712,0,0,1-5.423-3.317,13.564,13.564,0,0,1-2.446-2.943,8.526,8.526,0,0,1-1.191-2.089c-.329-1.044-.809-2.033-1.137-3.079a19.849,19.849,0,0,1-.129-8.074c.112-.471.231-.939.345-1.408.068-.209.139-.418.207-.624.418-.8.656-1.677,1.1-2.463.7-1.208,1.58-2.3,2.369-3.449a4.913,4.913,0,0,1,1.146-1.109,14.534,14.534,0,0,1,4.324-2.672c.208-.1.418-.192.63-.29l.631-.211c.092-.029.279-.085.372-.112C649.658,260.436,649.935,260.362,650.213,260.288Z" transform="translate(-455.785 -154.783)" fill="#02a9e9"/>
  </g>
</svg>
