<svg xmlns="http://www.w3.org/2000/svg" width="263.232" height="198.441" viewBox="0 0 263.232 198.441">
  <g id="loading__two_color" transform="translate(-35.16 -35.31)">
    <rect id="Rectangle_2816" data-name="Rectangle 2816" width="49.057" height="12.917" rx="6.459" transform="translate(210.203 208.171)" fill="#e6e6e6"/>
    <rect id="Rectangle_2817" data-name="Rectangle 2817" width="49.057" height="12.917" rx="6.459" transform="translate(199.481 195.535)" fill="#e6e6e6" opacity="0.43"/>
    <rect id="Rectangle_2814" data-name="Rectangle 2814" width="97.118" height="174.18" rx="8" transform="translate(123.088 46.9)" fill="#c9c9c9"/>
    <rect id="Rectangle_2815" data-name="Rectangle 2815" width="80.389" height="122.579" rx="8" transform="translate(131.13 66.761)" fill="#fff"/>
    <path id="Path_944" data-name="Path 944" d="M108.962,158s-22.746,1.7-27.988,25.894-14.236,35.952-32.464,19.478l-3.991,5.242s25.716,31.06,48.691-2.553S108.962,158,108.962,158Z" transform="translate(-1.395 -18.287)" fill="#02a9e9"/>
    <path id="Path_945" data-name="Path 945" d="M108.962,158s-22.746,1.7-27.988,25.894-14.236,35.952-32.464,19.478l-3.991,5.242s25.716,31.06,48.691-2.553S108.962,158,108.962,158Z" transform="translate(-1.395 -18.287)" fill="#fff" opacity="0.46"/>
    <ellipse id="Ellipse_348" data-name="Ellipse 348" cx="131.616" cy="11.564" rx="131.616" ry="11.564" transform="translate(35.16 210.622)" fill="#e6e6e6" opacity="0.45"/>
    <path id="Path_946" data-name="Path 946" d="M146.583,147.991s9.7-1.183,8.509,8.067-3.4,16.245,5.957,17.419,33.646,22.218,30.5,41.075-9.19,23.316-9.19,23.316H138.49Z" transform="translate(-15.402 -16.788)" opacity="0.08"/>
    <path id="Path_947" data-name="Path 947" d="M269.084,211.251s-7.25-1.983-8.824-8.722c0,0,11.224-2.272,11.547,9.318Z" transform="translate(-33.552 -24.898)" fill="#02a9e9" opacity="0.58"/>
    <path id="Path_948" data-name="Path 948" d="M271.243,209.287s-5.063-8-.6-15.487c0,0,8.509,5.429,4.74,15.5Z" transform="translate(-34.825 -23.624)" fill="#02a9e9" opacity="0.73"/>
    <path id="Path_949" data-name="Path 949" d="M273.21,210.24s2.672-8.45,10.756-10.05c0,0,1.515,5.489-5.233,10.075Z" transform="translate(-35.482 -24.576)" fill="#02a9e9"/>
    <path id="Path_950" data-name="Path 950" d="M267.03,211.75,268.5,221.8l9.25.034,1.362-10.033Z" transform="translate(-34.561 -26.299)" fill="#343f4e"/>
    <path id="Path_951" data-name="Path 951" d="M35.34,156.57v11.9h7.693l1.676,4.74,1.991-4.74h7.693v-11.9Z" transform="translate(-0.027 -18.074)" fill="#e6e6e6"/>
    <circle id="Ellipse_349" data-name="Ellipse 349" cx="1.242" cy="1.242" r="1.242" transform="translate(38.845 142.912)" fill="#a5a5a5"/>
    <circle id="Ellipse_350" data-name="Ellipse 350" cx="1.242" cy="1.242" r="1.242" transform="translate(43.593 142.912)" fill="#a5a5a5"/>
    <circle id="Ellipse_351" data-name="Ellipse 351" cx="1.242" cy="1.242" r="1.242" transform="translate(48.307 142.912)" fill="#a5a5a5"/>
    <circle id="Ellipse_352" data-name="Ellipse 352" cx="9.505" cy="9.505" r="9.505" transform="translate(162.436 195.535)" fill="#fff" opacity="0.56"/>
    <rect id="Rectangle_2818" data-name="Rectangle 2818" width="27.23" height="3.974" rx="1.987" transform="translate(163.432 53.707)" opacity="0.12"/>
    <circle id="Ellipse_353" data-name="Ellipse 353" cx="4.433" cy="4.433" r="4.433" transform="translate(149.136 51.699)" fill="#fff"/>
    <circle id="Ellipse_354" data-name="Ellipse 354" cx="4.595" cy="4.595" r="4.595" transform="translate(178.715 100.986)" fill="#a5a5a5" opacity="0.02"/>
    <circle id="Ellipse_355" data-name="Ellipse 355" cx="4.595" cy="4.595" r="4.595" transform="translate(155.484 124.217)" fill="#a5a5a5" opacity="0.36"/>
    <circle id="Ellipse_356" data-name="Ellipse 356" cx="4.595" cy="4.595" r="4.595" transform="translate(178.715 124.217)" fill="#a5a5a5" opacity="0.16"/>
    <circle id="Ellipse_357" data-name="Ellipse 357" cx="4.595" cy="4.595" r="4.595" transform="translate(155.484 100.986)" fill="#a5a5a5" opacity="0.84"/>
    <circle id="Ellipse_358" data-name="Ellipse 358" cx="4.595" cy="4.595" r="4.595" transform="translate(166.946 129.629)" fill="#a5a5a5" opacity="0.23"/>
    <circle id="Ellipse_359" data-name="Ellipse 359" cx="4.595" cy="4.595" r="4.595" transform="translate(166.946 96.765)" fill="#a5a5a5"/>
    <circle id="Ellipse_360" data-name="Ellipse 360" cx="4.595" cy="4.595" r="4.595" transform="translate(150.293 112.976)" fill="#a5a5a5" opacity="0.52"/>
    <circle id="Ellipse_361" data-name="Ellipse 361" cx="4.595" cy="4.595" r="4.595" transform="translate(183.157 112.976)" fill="#a5a5a5" opacity="0.09"/>
    <rect id="Rectangle_2819" data-name="Rectangle 2819" width="50.776" height="12.194" rx="6.097" transform="translate(145.936 156.451)" fill="#343f4e" opacity="0.35"/>
    <rect id="Rectangle_2820" data-name="Rectangle 2820" width="33.817" height="12.194" rx="6.097" transform="translate(145.936 156.451)" fill="#343f4e"/>
    <path id="Path_952" data-name="Path 952" d="M137.651,161.749s-16.627-11.309-34.676,2.553,0,62.442,0,62.442l39.144,1.3S183.491,191.166,137.651,161.749Z" transform="translate(-8.912 -18.198)" fill="#02a9e9"/>
    <path id="Path_953" data-name="Path 953" d="M162.685,180.95s24.277,32.761,6.808,39.782H154.4S138.978,176.747,162.685,180.95Z" transform="translate(-17.038 -21.666)" fill="#02a9e9"/>
    <path id="Path_954" data-name="Path 954" d="M157.9,220.858l-7.071-29.119-2.1-4.4-5.106-5.54h-7.727s-3.4,4.11,1.208,6.884,4.442,3.029,3.685,9.241v.187a32.778,32.778,0,0,1-20.806,26.677l-14.568,5.574S157.045,250.131,157.9,220.858Z" transform="translate(-10.471 -21.835)" opacity="0.08"/>
    <path id="Path_955" data-name="Path 955" d="M141.306,161.026s-2.059,9.36-5.957,8.892-3.4-2.842-3.4-2.842-3.778.9-4.255-2.272,2.493-6.68,5.591-7.029S141.306,161.026,141.306,161.026Z" transform="translate(-13.785 -18.25)" fill="#fff"/>
    <path id="Path_956" data-name="Path 956" d="M140.849,162.324a26.231,26.231,0,0,0-2.187,2.272c-.936,1.106-2.629,2.5-4.68,1.43-3.157-1.7-.451-6.612-.451-6.612s1.481-5.463,4.918-3.668C141.538,157.355,144.363,159,140.849,162.324Z" transform="translate(-14.502 -17.898)" fill="#f4a28c"/>
    <path id="Path_957" data-name="Path 957" d="M133.452,160.048s.851-1.447-.315-2.306S130.44,159.724,133.452,160.048Z" transform="translate(-14.389 -18.225)" fill="#f4a28c"/>
    <path id="Path_958" data-name="Path 958" d="M140.43,164.112s.6-1.591,2.008-1.174S142.54,166.291,140.43,164.112Z" transform="translate(-15.691 -19.013)" fill="#f4a28c"/>
    <path id="Path_959" data-name="Path 959" d="M140.941,160.99s4.978,2.885,5.574-1.983-1.8-2.749-.732-6.05.6-4.45-1.642-4.459-2.7,3.336-4.255,1.047-2.553-4.016-4.314-2.6-2.025,2.553-1.14,4.255-3.08,2.332-.442,5.957,7.327,1.31,7.327,1.31Z" transform="translate(-14.594 -16.563)" fill="#24285b"/>
    <path id="Path_960" data-name="Path 960" d="M162.175,218.643a8.016,8.016,0,0,0,12.313-7.939,16.389,16.389,0,0,0-2.859-6.808c-6.348-9.182-17.5-24.5-17.5-24.5s-10.067-6.518-13.249-1.617,8.748,5.54,8.748,5.54S149.861,210.448,162.175,218.643Z" transform="translate(-15.677 -20.964)" fill="#f4a28c"/>
    <path id="Path_961" data-name="Path 961" d="M155.751,180l-4.5,3.923s.74,36.786,17.427,36.727c0,0,11.19.383,7.573-12.764S168.848,196.9,155.751,180Z" transform="translate(-17.304 -21.567)" fill="#02a9e9"/>
    <path id="Path_962" data-name="Path 962" d="M155.751,180l-4.5,3.923s.74,36.786,17.427,36.727c0,0,11.19.383,7.573-12.764S168.848,196.9,155.751,180Z" transform="translate(-17.304 -21.567)" fill="#fff" opacity="0.46"/>
    <path id="Path_963" data-name="Path 963" d="M100.231,236.985a90.668,90.668,0,0,0,37.8-7.08c7.276-3.021,15.9-5.157,22.508-2.425,13.981,5.786,2.834,28.507-33.042,23.018L94.36,249.009s-20.721,0-22.976-4.561c-2.74-5.565,1.506-9.777,27.971-7.48Z" transform="translate(-5.292 -28.456)" fill="#343f4e"/>
    <path id="Path_964" data-name="Path 964" d="M47.4,210.564s-3-7.539-6.1-6.212,3.046,10.211,3.046,10.211Z" transform="translate(-0.784 -25.173)" fill="#f4a28c"/>
    <rect id="Rectangle_2821" data-name="Rectangle 2821" width="7.829" height="14.985" rx="2" transform="translate(38.679 171.213) rotate(-19.19)" fill="#343f4e" stroke="#edfaff" stroke-width="1"/>
    <path id="Path_965" data-name="Path 965" d="M138.517,247.63s-15.436,2.085-11.709,5.65,12.841.9,12.841.9Z" transform="translate(-13.574 -31.647)" fill="#02a9e9"/>
    <path id="Path_966" data-name="Path 966" d="M107,252.532l.681-4.782s9.65.519,8.152,3.651S107,252.532,107,252.532Z" transform="translate(-10.708 -31.665)" fill="#02a9e9"/>
    <rect id="Rectangle_2822" data-name="Rectangle 2822" width="53.678" height="41.637" rx="8" transform="translate(203.196 35.31)" fill="#ffba00"/>
    <rect id="Rectangle_2823" data-name="Rectangle 2823" width="17.13" height="14.577" transform="translate(203.196 76.947)" opacity="0.08"/>
    <g id="Group_1254" data-name="Group 1254" transform="translate(-1 -1)">
      <circle id="Ellipse_362" data-name="Ellipse 362" cx="12.041" cy="12.041" r="12.041" transform="translate(219.015 44.721)" fill="none" stroke="#fff" stroke-miterlimit="10" stroke-width="3"/>
      <path id="Path_967" data-name="Path 967" d="M266.05,53.66v7.2h-4.57" transform="translate(-33.734 -2.735)" fill="none" stroke="#fff" stroke-linecap="round" stroke-linejoin="round" stroke-width="3"/>
    </g>
  </g>
</svg>
