<svg xmlns="http://www.w3.org/2000/svg" width="247.872" height="186.856" viewBox="0 0 247.872 186.856">
  <g id="mobile_phone_two_color" transform="translate(-53.84 -45.32)">
    <ellipse id="Ellipse_270" data-name="Ellipse 270" cx="123.936" cy="16.924" rx="123.936" ry="16.924" transform="translate(53.84 198.327)" fill="#e6e6e6" opacity="0.45"/>
    <path id="Path_672" data-name="Path 672" d="M283.69,232.074s-9.859-2.647-12.04-11.811c0,0,15.25-3.145,15.748,12.6Z" transform="translate(-39.899 -31.999)" fill="#02a9e9" opacity="0.58"/>
    <path id="Path_673" data-name="Path 673" d="M287.115,228.859S280.188,218,286.2,207.81c0,0,11.632,7.351,6.535,21.049Z" transform="translate(-42.114 -29.765)" fill="#02a9e9" opacity="0.73"/>
    <path id="Path_674" data-name="Path 674" d="M290,230.5s3.586-11.509,14.572-13.731c0,0,2.091,7.449-7.065,13.731Z" transform="translate(-43.26 -31.406)" fill="#02a9e9"/>
    <path id="Path_675" data-name="Path 675" d="M281.29,233.3l2.058,13.649h12.571l1.8-13.649Z" transform="translate(-41.665 -34.434)" fill="#343f4e"/>
    <rect id="Rectangle_2719" data-name="Rectangle 2719" width="93.224" height="167.195" rx="8" transform="translate(126.619 45.32)" fill="#c9c9c9"/>
    <rect id="Rectangle_2720" data-name="Rectangle 2720" width="77.165" height="117.663" rx="4" transform="translate(134.329 64.385)" fill="#fff"/>
    <circle id="Ellipse_271" data-name="Ellipse 271" cx="9.124" cy="9.124" r="9.124" transform="translate(164.388 187.994)" fill="#fff" opacity="0.56"/>
    <path id="Path_676" data-name="Path 676" d="M178.1,123.69l15.324,2.287L192.952,127a30.541,30.541,0,0,0-2.589,10.9c-.114,1.83-1.152,4.329-4.6,7.27-5.881,5.015-9.663,21.164-17.472,27.47a21.237,21.237,0,0,0-7.629,15.7l-1.519,38.521H144l3.341-58.9,4.011-20.331,9.8-10.063,8.985-11.591,4.084-2.287Z" transform="translate(-16.516 -14.356)" opacity="0.08"/>
    <rect id="Rectangle_2723" data-name="Rectangle 2723" width="26.138" height="3.815" rx="1.907" transform="translate(165.344 51.855)" opacity="0.12"/>
    <circle id="Ellipse_272" data-name="Ellipse 272" cx="4.256" cy="4.256" r="4.256" transform="translate(151.621 49.919)" fill="#fff"/>
    <path id="Path_677" data-name="Path 677" d="M152.96,146.419l14.67-18.289,3.169,2.777-12.505,20.911Z" transform="translate(-18.157 -15.169)" fill="#68e1fd"/>
    <path id="Path_678" data-name="Path 678" d="M121.856,113.221l2.7,8.127-6.428,4.084L115.82,111.35Z" transform="translate(-11.354 -12.095)" fill="#f4a28c"/>
    <path id="Path_679" data-name="Path 679" d="M113,101.055a5.056,5.056,0,0,1,8.364-1.421c2.736,2.916,6.036,7.564,2.3,10.1-5.718,3.872-10.954-3.365-10.954-3.365a9.189,9.189,0,0,1,.286-5.309Z" transform="translate(-10.736 -9.65)" fill="#f4a28c"/>
    <path id="Path_680" data-name="Path 680" d="M117.727,107.746s-1.462-1.225-2.132.515,1.928,2.573,2.7,1.7S117.727,107.746,117.727,107.746Z" transform="translate(-11.292 -11.359)" fill="#f4a28c"/>
    <path id="Path_681" data-name="Path 681" d="M108.9,131.244a16.426,16.426,0,0,1,10.308-8.985c8.732-2.622,24.823.245,29.724,8.421,6.714,11.182-3.112,46.722-3.112,46.722l-29.356,2.279S100.356,150.537,108.9,131.244Z" transform="translate(-9.628 -13.921)" fill="#02a9e9"/>
    <path id="Path_682" data-name="Path 682" d="M148.175,189.96l-3.864,50.463h-6.1l-5.456-39.207-13.494-8.977Z" transform="translate(-11.984 -26.495)" fill="#343f4e"/>
    <path id="Path_683" data-name="Path 683" d="M117.371,192.75l-8.421,48.184h6.543L129.632,200.9Z" transform="translate(-10.095 -27.006)" fill="#343f4e"/>
    <path id="Path_684" data-name="Path 684" d="M121.78,121.51s-13.731,44.223,25.918,47.155l-1.846,8.789L116.5,179.733a76.3,76.3,0,0,1-9.908-39.06s.253-11.28,8.168-16.263a17.97,17.97,0,0,1,7.025-2.9Z" transform="translate(-9.66 -13.957)" opacity="0.08"/>
    <path id="Path_685" data-name="Path 685" d="M109.868,251.61l-3.945,2.908a.874.874,0,0,0,.515,1.568h6.608a.874.874,0,0,0,.866-.874v-3.6Z" transform="translate(-9.478 -37.788)" fill="#02a9e9"/>
    <path id="Path_686" data-name="Path 686" d="M148.084,251.608l3.717,2.908a.874.874,0,0,1-.539,1.568h-4.7A2.516,2.516,0,0,1,144,253.56V251.6Z" transform="translate(-16.516 -37.787)" fill="#02a9e9"/>
    <path id="Path_687" data-name="Path 687" d="M139.338,122.17a14.8,14.8,0,0,0,0,15.65c3.2,5.407,12.522,15.928,18.885,22.871a6.722,6.722,0,0,0,10.839-1.266l13.7-24.1-4.64-2.973-12.538,18.378S156.981,122.521,139.338,122.17Z" transform="translate(-15.252 -14.077)" fill="#02a9e9"/>
    <path id="Path_688" data-name="Path 688" d="M139.338,122.17a14.8,14.8,0,0,0,0,15.65c3.2,5.407,12.522,15.928,18.885,22.871a6.722,6.722,0,0,0,10.839-1.266l13.7-24.1-4.64-2.973-12.538,18.378S156.981,122.521,139.338,122.17Z" transform="translate(-15.252 -14.077)" fill="#fff" opacity="0.2"/>
    <path id="Path_689" data-name="Path 689" d="M190.322,135.119s7.768-2.851,4.6-7.245-7.621,5.309-7.621,5.309Z" transform="translate(-24.447 -14.913)" fill="#f4a28c"/>
    <rect id="Rectangle_2724" data-name="Rectangle 2724" width="7.67" height="11.182" rx="2" transform="translate(165.93 104.309) rotate(24.13)" fill="#343f4e" stroke="#edfaff" stroke-width="1"/>
    <path id="Path_690" data-name="Path 690" d="M115.064,109.8l-4.362-4.5a4.77,4.77,0,0,1-1.323-3.537c.106-2.287.6-5.938,2.45-8.683,2.973-4.3,6.935-5.922,7.915-2.205s1.193-.694,3.586,1.274,1.9,3.137,0,4.182-5.848,2.565-6.2,5.718S119.8,107.694,115.064,109.8Z" transform="translate(-10.173 -7.966)" fill="#343f4e"/>
    <path id="Path_691" data-name="Path 691" d="M171.83,127.561s.972-6.706,7.474-6.061,4.125,2.3,1.5,2.45h0a3.047,3.047,0,0,0-2.287,2.091c-.384,1.176-1.438,2.7-4.239,3.659Z" transform="translate(-21.614 -13.947)" fill="#f4a28c"/>
    <path id="Path_694" data-name="Path 694" d="M91.339,117.466l-6.706-2.745V108.35H58.29v16.41H84.632v-5.522Z" transform="translate(-0.815 -11.546)" fill="#e6e6e6"/>
    <circle id="Ellipse_275" data-name="Ellipse 275" cx="2.001" cy="2.001" r="2.001" transform="translate(62.751 103.012)" opacity="0.12"/>
    <circle id="Ellipse_276" data-name="Ellipse 276" cx="2.001" cy="2.001" r="2.001" transform="translate(68.6 103.012)" opacity="0.12"/>
    <circle id="Ellipse_277" data-name="Ellipse 277" cx="2.001" cy="2.001" r="2.001" transform="translate(74.309 103.012)" opacity="0.12"/>
  </g>
</svg>
