<svg xmlns="http://www.w3.org/2000/svg" width="192.901" height="189.852" viewBox="0 0 192.901 189.852">
  <g id="password_two_color" transform="translate(-77.936 -31.39)">
    <path id="Path_716" data-name="Path 716" d="M145.076,74.361c-45.841-2.414-79.638,43.344-62.7,86.034a55.716,55.716,0,0,0,13.27,19.932c37.558,36.035,118.011,23.853,143.014,5.071s35.243-75.687,12.814-93.647C223.557,69.451,186.692,76.554,145.076,74.361Z" transform="translate(0 -10.233)" fill="#e6e6e6" opacity="0.45"/>
    <path id="Path_717" data-name="Path 717" d="M211.8,195.032l23.221,27.98,30.964-34.771L241.135,166.42Z" transform="translate(-31.945 -32.224)" fill="#f4a28c"/>
    <path id="Path_718" data-name="Path 718" d="M228.31,221.548,264.65,189l42.073,35.845-50.5,34.01Z" transform="translate(-35.885 -37.612)" fill="#02a9e9"/>
    <path id="Path_719" data-name="Path 719" d="M227.464,192.68l45.56,53.3-20.435,13.758-27.911-37.307,2.893-2.474L213.09,202.479Z" transform="translate(-32.253 -38.49)" opacity="0.08"/>
    <path id="Path_720" data-name="Path 720" d="M129.47,158.84S153.978,192.9,177.4,194.2s35.944.129,45.682-22.62Z" transform="translate(-12.298 -30.415)" fill="#f4a28c"/>
    <path id="Path_721" data-name="Path 721" d="M129.47,158.84S153.978,192.9,177.4,194.2s35.944.129,45.682-22.62Z" transform="translate(-12.298 -30.415)" opacity="0.08"/>
    <rect id="Rectangle_2743" data-name="Rectangle 2743" width="68.469" height="122.8" rx="8" transform="translate(123.956 31.39)" fill="#c9c9c9"/>
    <rect id="Rectangle_2744" data-name="Rectangle 2744" width="56.676" height="86.422" rx="4" transform="translate(129.62 45.391)" fill="#fff"/>
    <circle id="Ellipse_283" data-name="Ellipse 283" cx="6.7" cy="6.7" r="6.7" transform="translate(151.699 136.176)" fill="#fff" opacity="0.56"/>
    <rect id="Rectangle_2745" data-name="Rectangle 2745" width="19.194" height="2.802" transform="translate(152.4 36.187)" opacity="0.12"/>
    <circle id="Ellipse_284" data-name="Ellipse 284" cx="3.129" cy="3.129" r="3.129" transform="translate(142.32 34.763)" fill="#fff"/>
    <path id="Path_722" data-name="Path 722" d="M153.47,158.44s4.347,7.789-.952,10.195-14.138-1.523-14.138-1.523v-5.741Z" transform="translate(-14.424 -30.319)" opacity="0.08"/>
    <path id="Path_723" data-name="Path 723" d="M152.237,129.21s4.873,11.078-.419,13.491-13.438-1.782-13.438-1.782v-5.779Z" transform="translate(-14.424 -23.344)" opacity="0.08"/>
    <path id="Path_724" data-name="Path 724" d="M152.237,115.67s4.157,8.832-1.142,11.245-12.715.457-12.715.457v-5.741Z" transform="translate(-14.424 -20.113)" opacity="0.08"/>
    <path id="Path_725" data-name="Path 725" d="M132.238,98.154s-10.423,14.108,0,16.75,21.524,3.045,16.438-9.06S132.238,98.154,132.238,98.154Z" transform="translate(-11.853 -15.745)" fill="#f4a28c"/>
    <path id="Path_726" data-name="Path 726" d="M132.238,117.83s-10.423,14.116,0,16.75,20.123,3.32,17.146-9.479C147.305,116.14,132.238,117.83,132.238,117.83Z" transform="translate(-11.853 -20.598)" fill="#f4a28c"/>
    <path id="Path_727" data-name="Path 727" d="M132.238,139.09s-10.423,14.116,0,16.75,18.615,6.852,19.217-5.954C151.858,141.2,132.238,139.09,132.238,139.09Z" transform="translate(-11.853 -25.702)" fill="#f4a28c"/>
    <path id="Path_728" data-name="Path 728" d="M143.484,105.406l-.929,6.951A1.667,1.667,0,0,0,144,114.23l2.284.289a3.807,3.807,0,0,0,4.226-2.9l.579-2.353a3.807,3.807,0,0,0-2.863-4.66l-2.672-.632a1.675,1.675,0,0,0-2.071,1.431Z" transform="translate(-15.417 -17.31)" fill="#fff" opacity="0.46"/>
    <path id="Path_729" data-name="Path 729" d="M127.745,107.181s-.662,2.855.388,4.256h59.751V95.19Z" transform="translate(-11.837 -15.225)" opacity="0.08"/>
    <rect id="Rectangle_2746" data-name="Rectangle 2746" width="65.18" height="46.565" transform="translate(113.091 45.391)" fill="#343f4e"/>
    <circle id="Ellipse_285" data-name="Ellipse 285" cx="11.146" cy="11.146" r="11.146" transform="translate(147.367 101.861)" fill="#ffba00"/>
    <path id="Path_730" data-name="Path 730" d="M178.34,137.574l3.754,4.325,5.048-7.949" transform="translate(-23.961 -24.475)" fill="none" stroke="#fff" stroke-linecap="round" stroke-linejoin="round" stroke-width="3"/>
    <path id="Path_731" data-name="Path 731" d="M179.62,109.84l2.6,7.621,2.87-7.621Z" transform="translate(-24.266 -18.721)" fill="#343f4e"/>
    <path id="Path_732" data-name="Path 732" d="M169.586,65.061h-1.743V60.919a2.558,2.558,0,1,0-5.109,0v4.142H160.96V60.919a4.332,4.332,0,0,1,8.657,0Z" transform="translate(-19.813 -6.056)" fill="#e7eaeb"/>
    <path id="Path_733" data-name="Path 733" d="M169.586,65.061h-1.743V60.919a2.558,2.558,0,1,0-5.109,0v4.142H160.96V60.919a4.332,4.332,0,0,1,8.657,0Z" transform="translate(-19.813 -6.056)" fill="#fff" opacity="0.46"/>
    <rect id="Rectangle_2747" data-name="Rectangle 2747" width="13.24" height="10.552" transform="translate(138.825 55.837)" fill="#02a9e9"/>
    <path id="Path_734" data-name="Path 734" d="M167.312,68.1a1.4,1.4,0,1,0-2.345,1.02v2.969h1.919V69.094A1.4,1.4,0,0,0,167.312,68.1Z" transform="translate(-20.66 -8.422)" fill="#343f4e"/>
    <rect id="Rectangle_2748" data-name="Rectangle 2748" width="40.961" height="10.263" rx="5.132" transform="translate(125.615 72.138)" fill="#fff"/>
    <circle id="Ellipse_286" data-name="Ellipse 286" cx="1.37" cy="1.37" r="1.37" transform="translate(134.902 75.907)" fill="#343f4e"/>
    <circle id="Ellipse_287" data-name="Ellipse 287" cx="1.37" cy="1.37" r="1.37" transform="translate(139.988 75.907)" fill="#343f4e"/>
    <circle id="Ellipse_288" data-name="Ellipse 288" cx="1.37" cy="1.37" r="1.37" transform="translate(144.952 75.907)" fill="#343f4e"/>
    <circle id="Ellipse_289" data-name="Ellipse 289" cx="1.37" cy="1.37" r="1.37" transform="translate(150.038 75.907)" fill="#343f4e"/>
    <circle id="Ellipse_290" data-name="Ellipse 290" cx="1.37" cy="1.37" r="1.37" transform="translate(155.231 75.907)" fill="#343f4e"/>
    <path id="Path_735" data-name="Path 735" d="M235.446,100.933c-.16-2.6-.259-5.208-.228-7.537a7.021,7.021,0,0,0-9.136-6.852c-2.284.761-4.111,2.71-4.111,6.852,0,8.238,2.581,20.107,4.035,26.137a22.841,22.841,0,0,1,.5,7.781c-.944,8.9-2.444,29.906,4.119,31.307,7.614,1.622,26.077-1.058,11.626-31.848a71.491,71.491,0,0,1-6.807-25.84Z" transform="translate(-34.372 -13.073)" fill="#f4a28c"/>
    <path id="Path_736" data-name="Path 736" d="M144.092,149.317l-.183,6.137a1.454,1.454,0,0,0,1.424,1.523l1.987.053a3.358,3.358,0,0,0,3.411-2.908l.289-2.094a3.358,3.358,0,0,0-2.908-3.807l-2.375-.3a1.462,1.462,0,0,0-1.645,1.4Z" transform="translate(-15.744 -27.805)" fill="#fff" opacity="0.46"/>
    <path id="Path_737" data-name="Path 737" d="M142.584,124.913l-.929,6.966a1.667,1.667,0,0,0,1.447,1.881l2.284.289a3.853,3.853,0,0,0,4.233-2.9l.571-2.353a3.853,3.853,0,0,0-2.863-4.667l-2.672-.624a1.675,1.675,0,0,0-2.071,1.409Z" transform="translate(-15.202 -21.97)" fill="#fff" opacity="0.46"/>
  </g>
</svg>
