<svg xmlns="http://www.w3.org/2000/svg" width="223.237" height="214.537" viewBox="0 0 223.237 214.537">
  <g id="team_work_two_color" transform="translate(-62.96 -18.93)">
    <rect id="Rectangle_2750" data-name="Rectangle 2750" width="21.386" height="3.382" rx="1.691" transform="translate(182.69 36.477)" fill="#e6e6e6"/>
    <rect id="Rectangle_2751" data-name="Rectangle 2751" width="16.174" height="3.382" rx="1.691" transform="translate(187.902 33.078)" fill="#c9c9c9"/>
    <ellipse id="Ellipse_305" data-name="Ellipse 305" cx="111.619" cy="16.052" rx="111.619" ry="16.052" transform="translate(62.96 201.364)" fill="#e6e6e6" opacity="0.45"/>
    <path id="Path_756" data-name="Path 756" d="M264.09,77.19V92.2h9.7l2.116,5.971L278.41,92.2h9.7V77.19Z" transform="translate(-36.831 -10.669)" fill="#e6e6e6"/>
    <path id="Path_757" data-name="Path 757" d="M276.58,88.813h0a.76.76,0,0,1-.564-.286l-2.532-3.268a.735.735,0,0,1,.131-1.046.743.743,0,0,1,1.054.131l1.993,2.565,4.9-5.31a.735.735,0,0,1,1.054,0,.743.743,0,0,1,.041,1.062l-5.514,5.906A.744.744,0,0,1,276.58,88.813Z" transform="translate(-38.521 -11.435)" opacity="0.12"/>
    <path id="Path_758" data-name="Path 758" d="M105.59,81.46V96.466h9.7l2.124,5.971,2.508-5.971h9.7V81.46Z" transform="translate(-7.806 -11.45)" fill="#e6e6e6"/>
    <path id="Path_759" data-name="Path 759" d="M118.085,93.081h0a.76.76,0,0,1-.564-.286l-2.532-3.268a.752.752,0,0,1,1.184-.923l1.993,2.565,4.9-5.31a.743.743,0,0,1,1.062,0,.76.76,0,0,1,0,1.062l-5.522,5.955a.727.727,0,0,1-.523.2Z" transform="translate(-9.502 -12.215)" opacity="0.12"/>
    <rect id="Rectangle_2752" data-name="Rectangle 2752" width="97.781" height="175.36" rx="8" transform="translate(126.015 39.875)" fill="#c9c9c9"/>
    <rect id="Rectangle_2753" data-name="Rectangle 2753" width="80.937" height="123.414" rx="4" transform="translate(134.102 59.864)" fill="#fff"/>
    <circle id="Ellipse_306" data-name="Ellipse 306" cx="9.566" cy="9.566" r="9.566" transform="translate(165.634 189.519)" fill="#fff" opacity="0.56"/>
    <rect id="Rectangle_2754" data-name="Rectangle 2754" width="27.415" height="3.995" rx="1.997" transform="translate(166.63 46.728)" opacity="0.12"/>
    <circle id="Ellipse_307" data-name="Ellipse 307" cx="4.468" cy="4.468" r="4.468" transform="translate(152.237 44.694)" fill="#fff"/>
    <path id="Path_760" data-name="Path 760" d="M273.29,121.584a20.025,20.025,0,0,0,0,5.326,1.634,1.634,0,0,0,1.911,1.25,3.562,3.562,0,0,0,2.9-2.549l1.078-2.761a2.892,2.892,0,0,0-1.127-3.129C276.329,118.35,273.445,119.64,273.29,121.584Z" transform="translate(-38.483 -18.352)" fill="#f4a28c"/>
    <path id="Path_761" data-name="Path 761" d="M139.756,183.356l.425,8.871,8.577-1.781,3.651-15.472a14.508,14.508,0,0,1,12.539-11.093c6.535-.711,14.639-1.381,19.809-1.021,9.745.678,30.331-1.634,37.25,4.28s7.646,21.86,15.668,27.709v-11.1l-2.344-29.873-8.847-3.014-31.319,4.648-3.341.572-3.464,1.879-7.352-3.676L138.67,152.51Z" transform="translate(-13.864 -24.159)" opacity="0.08"/>
    <path id="Path_762" data-name="Path 762" d="M279.3,124.3l1.193,10.432-5.8.245,1.462-7.7Z" transform="translate(-38.772 -19.295)" fill="#f4a28c"/>
    <path id="Path_763" data-name="Path 763" d="M126.581,137.51l55.025,12.466-1,4.681s-27.513-.694-48.073,3.268S126.581,137.51,126.581,137.51Z" transform="translate(-10.728 -21.714)" fill="#02a9e9"/>
    <path id="Path_764" data-name="Path 764" d="M126.581,137.51l55.025,12.466-1,4.681s-27.513-.694-48.073,3.268S126.581,137.51,126.581,137.51Z" transform="translate(-10.728 -21.714)" opacity="0.08"/>
    <path id="Path_765" data-name="Path 765" d="M272.9,124.6l-.923,1.193a.523.523,0,0,0,.286.817l1.217.286Z" transform="translate(-38.256 -19.35)" fill="#f4a28c"/>
    <path id="Path_766" data-name="Path 766" d="M259.555,137.51l-54.8,13.47,1.47,2.973s26.818,0,47.379,3.921S259.555,137.51,259.555,137.51Z" transform="translate(-25.964 -21.714)" fill="#f4a28c"/>
    <path id="Path_767" data-name="Path 767" d="M275.9,129.767a3.791,3.791,0,0,0,1.92-1.037,5.988,5.988,0,0,1-2.353,3.717Z" transform="translate(-38.915 -20.106)" fill="#ce8172" opacity="0.31"/>
    <path id="Path_768" data-name="Path 768" d="M241.38,155.538l1.405-12.065,19.368-4.983,2.214,20.022A56.7,56.7,0,0,1,241.38,155.538Z" transform="translate(-32.672 -21.894)" fill="#02a9e9"/>
    <path id="Path_769" data-name="Path 769" d="M241.38,155.538l1.405-12.065,19.368-4.983,2.214,20.022A56.7,56.7,0,0,1,241.38,155.538Z" transform="translate(-32.672 -21.894)" opacity="0.08"/>
    <path id="Path_770" data-name="Path 770" d="M264.054,137.9s24.866-5.563,33.77-.572-8.577,52.043-8.577,52.043L261.8,188.5S237.775,142.674,264.054,137.9Z" transform="translate(-34.573 -21.299)" fill="#02a9e9"/>
    <path id="Path_771" data-name="Path 771" d="M272.306,255.59s-1.283,2.3-3.521,2.132-3.17,1.9-1.274,2.777,7.442-.817,7.442-.817l.474-4.084Z" transform="translate(-37.27 -43.337)" fill="#02a9e9"/>
    <path id="Path_772" data-name="Path 772" d="M297.5,254.9s.915,2.451,3.153,2.647,2.843,2.361.817,2.941-7.221-1.96-7.221-1.96l.147-4.084Z" transform="translate(-42.354 -43.126)" fill="#02a9e9"/>
    <path id="Path_773" data-name="Path 773" d="M264.05,200.039l7.017,45.051h4.591s-4.248-33.884,3.178-37.969S287.7,245.09,287.7,245.09l4.9-.392-.057-46.448Z" transform="translate(-36.823 -32.837)" fill="#343f4e"/>
    <path id="Path_774" data-name="Path 774" d="M124.867,121.584a19.662,19.662,0,0,1,0,5.326,1.634,1.634,0,0,1-1.911,1.25,3.537,3.537,0,0,1-2.892-2.549l-1.086-2.761a2.884,2.884,0,0,1,1.135-3.129C121.836,118.35,124.7,119.64,124.867,121.584Z" transform="translate(-10.239 -18.352)" fill="#f4a28c"/>
    <path id="Path_775" data-name="Path 775" d="M118.944,124.3l-1.184,10.432,5.8.245-1.47-7.7Z" transform="translate(-10.035 -19.295)" fill="#f4a28c"/>
    <path id="Path_776" data-name="Path 776" d="M126.285,124.6l.948,1.193a.515.515,0,0,1-.286.817l-1.217.286Z" transform="translate(-11.494 -19.35)" fill="#f4a28c"/>
    <path id="Path_777" data-name="Path 777" d="M123.11,129.767a3.79,3.79,0,0,1-1.92-1.037,5.98,5.98,0,0,0,2.361,3.717Z" transform="translate(-10.663 -20.106)" fill="#ce8172" opacity="0.31"/>
    <path id="Path_778" data-name="Path 778" d="M124.593,137.9s-24.866-5.563-33.77-.572S99.4,189.367,99.4,189.367l27.455-.866S150.872,142.674,124.593,137.9Z" transform="translate(-4.639 -21.299)" fill="#02a9e9"/>
    <path id="Path_779" data-name="Path 779" d="M125.24,255.59s1.274,2.3,3.513,2.132,3.178,1.9,1.274,2.777-7.434-.817-7.434-.817l-.474-4.084Z" transform="translate(-10.833 -43.337)" fill="#02a9e9"/>
    <path id="Path_780" data-name="Path 780" d="M100.144,254.9s-.907,2.451-3.145,2.647-2.851,2.361-.817,2.941,7.229-1.96,7.229-1.96l-.155-4.084Z" transform="translate(-5.857 -43.126)" fill="#02a9e9"/>
    <path id="Path_781" data-name="Path 781" d="M103.315,143.13s7.858,5.089,3.856,16.713-4.648,19.956,4.787,17.04,8.741-15.929,8.741-15.929l9.623,1.487.931,18.47-4.084,9.035-23.853-1.5L93.6,185.992l-3.6-12.2,6.6-20.643Z" transform="translate(-4.952 -22.743)" opacity="0.08"/>
    <path id="Path_782" data-name="Path 782" d="M129.095,200.039l-7.025,45.051h-4.591s4.256-33.884-3.169-37.969-8.888,37.969-8.888,37.969l-4.9-.392.049-46.448Z" transform="translate(-6.878 -32.837)" fill="#343f4e"/>
    <path id="Path_783" data-name="Path 783" d="M96.9,135.982S81.44,133.376,81.44,157.711s3.717,46,39.415,24.294l-2.712-4.142s-19.229,8.463-23.322,1.029S110.88,140.066,96.9,135.982Z" transform="translate(-3.384 -21.42)" fill="#02a9e9"/>
    <path id="Path_784" data-name="Path 784" d="M96.9,135.982S81.44,133.376,81.44,157.711s3.717,46,39.415,24.294l-2.712-4.142s-19.229,8.463-23.322,1.029S110.88,140.066,96.9,135.982Z" transform="translate(-3.384 -21.42)" fill="#fff" opacity="0.46"/>
    <rect id="Rectangle_2755" data-name="Rectangle 2755" width="13.503" height="20.21" rx="2" transform="matrix(-0.97, -0.244, 0.244, -0.97, 129.958, 159.095)" fill="#343f4e"/>
    <path id="Path_785" data-name="Path 785" d="M294.329,144.59s-5.971,4.738-2.344,15.047.188,27.774-10.195,29.661l13.993-.874L302.874,165Z" transform="translate(-40.072 -23.011)" opacity="0.08"/>
    <path id="Path_786" data-name="Path 786" d="M123.961,121.254a5.89,5.89,0,0,1-.727.188,5.376,5.376,0,0,0-1,.335l-.261.114a1.037,1.037,0,0,0-.621.956,2.818,2.818,0,0,1-2.786,3.1s-2.524-3.766-.506-6.658a6.674,6.674,0,0,1,5.073-2.7,2.4,2.4,0,0,1,.833,4.664Z" transform="translate(-9.946 -17.883)" fill="#343f4e"/>
    <path id="Path_787" data-name="Path 787" d="M121.854,126.03a.817.817,0,0,0,.114-.817c-.18-.425-.531-1-1.119-.915s-.711,1.046-.294,1.634a.817.817,0,0,0,1.3,0Z" transform="translate(-10.502 -19.293)" fill="#f4a28c"/>
    <path id="Path_788" data-name="Path 788" d="M271.317,117.184a5.056,5.056,0,0,1,.817,2.075,1.43,1.43,0,0,0,1.887,1.364c2.451-.425,1.634,4.191,4.844,3.668a2.263,2.263,0,0,0,2.108-1.683,3.382,3.382,0,0,1,1.789-2.271,1.786,1.786,0,0,0,.882-2.3c-.711-2.973-3.014.727-3.823-2.451s-2.157-2.679-2.81-2.108-1.323,1.43-2.353.384S269.88,114.889,271.317,117.184Z" transform="translate(-38.095 -17.236)" fill="#ffba00"/>
    <path id="Path_789" data-name="Path 789" d="M277.311,126.03a.817.817,0,0,1-.114-.817c.18-.425.531-1,1.111-.915s.711,1.046.3,1.634a.817.817,0,0,1-1.3,0Z" transform="translate(-39.219 -19.293)" fill="#f4a28c"/>
    <path id="Path_790" data-name="Path 790" d="M194.749,153.61l2.124.637a3.357,3.357,0,0,1,2.353,2.524c.229,1.111.245,2.328-.629,2.7-1.715.711-4.477-2.924-4.477-2.924Z" transform="translate(-24.018 -24.662)" fill="#f4a28c"/>
    <path id="Path_791" data-name="Path 791" d="M205.138,153.61l-1.993.6a3.594,3.594,0,0,0-2.532,2.859c-.172,1.021-.114,2.067.678,2.4,1.715.711,4.476-2.924,4.476-2.924Z" transform="translate(-25.192 -24.662)" fill="#f4a28c"/>
    <circle id="Ellipse_308" data-name="Ellipse 308" cx="23.191" cy="23.191" r="23.191" transform="translate(151.306 74.004)" fill="#ffba00"/>
    <path id="Path_792" data-name="Path 792" d="M189.11,113.451l5.6,9.116,11.387-16.248" transform="translate(-23.1 -16.003)" fill="none" stroke="#fff" stroke-linecap="round" stroke-linejoin="round" stroke-width="5"/>
    <path id="Path_793" data-name="Path 793" d="M303.733,136.466c5.253.457,11.91,5.016,16.452,22.285l-15.929,5.718-6.78-19.875a6.151,6.151,0,0,1,6.257-8.128Z" transform="translate(-42.883 -21.52)" fill="#02a9e9"/>
    <path id="Path_794" data-name="Path 794" d="M303.733,136.466c5.253.457,11.91,5.016,16.452,22.285l-15.929,5.718-6.78-19.875a6.151,6.151,0,0,1,6.257-8.128Z" transform="translate(-42.883 -21.52)" fill="#fff" opacity="0.46"/>
    <path id="Path_795" data-name="Path 795" d="M115.23,135.822s.359-4.084,5.155-2.614,5.04,3.455,5.04,3.455Z" transform="translate(-9.572 -20.868)" fill="#02a9e9"/>
    <path id="Path_796" data-name="Path 796" d="M115.23,135.822s.359-4.084,5.155-2.614,5.04,3.455,5.04,3.455Z" transform="translate(-9.572 -20.868)" fill="#fff" opacity="0.46"/>
    <path id="Path_797" data-name="Path 797" d="M319.377,163.75l3.692,13.144A12.547,12.547,0,0,1,314.9,192.2L303.726,195a3.537,3.537,0,0,0-2.565,2.451c-.343,1.184-.931,2.451-1.9,2.377-4.027-.359-.188-6.086-.188-6.086l10.914-6.813a6.347,6.347,0,0,0,2.287-8.267l-5.2-10.113Z" transform="translate(-42.934 -26.519)" fill="#f4a28c"/>
    <rect id="Rectangle_2756" data-name="Rectangle 2756" width="36.817" height="16.958" rx="2" transform="translate(156.705 146.249)" fill="#85949b"/>
    <rect id="Rectangle_2757" data-name="Rectangle 2757" width="23.436" height="4.975" rx="2" transform="translate(163.485 169.587)" fill="#c9c9c9" opacity="0.34"/>
    <path id="Path_798" data-name="Path 798" d="M127,187.7s2.622-3.978,5.089-1.969-3.562,4.3-3.562,4.3Z" transform="translate(-11.727 -30.441)" fill="#f4a28c"/>
    <rect id="Rectangle_2758" data-name="Rectangle 2758" width="19.63" height="4.215" rx="2" transform="translate(170.216 149.084)" fill="#fff" opacity="0.46"/>
    <path id="Path_799" data-name="Path 799" d="M231.858,33.654s-5.98-1.634-7.278-7.2c0,0,9.263-1.871,9.525,7.687Z" transform="translate(-29.596 -1.351)" fill="#02a9e9" opacity="0.58"/>
    <path id="Path_800" data-name="Path 800" d="M233.939,31.706s-4.174-6.6-.5-12.776a10.635,10.635,0,0,1,3.913,12.792Z" transform="translate(-30.941)" fill="#02a9e9" opacity="0.73"/>
    <path id="Path_801" data-name="Path 801" d="M235.71,32.72s2.206-6.976,8.871-8.3c0,0,1.25,4.534-4.313,8.316Z" transform="translate(-31.634 -1.005)" fill="#02a9e9"/>
    <path id="Path_802" data-name="Path 802" d="M230.4,34.38l1.209,8.291,7.63.033,1.127-8.275Z" transform="translate(-30.661 -2.829)" fill="#343f4e"/>
  </g>
</svg>
